<?xml version="1.0" encoding="UTF-8"?>
<svg data-bbox="50.962 76.198 266.129 279.488" height="500" viewBox="0 0 375 375" width="500" xmlns="http://www.w3.org/2000/svg" data-type="shape">
    <g>
        <defs>
            <clipPath id="68a2ab89-362f-4c8e-81e4-e4253175b8a7">
                <path d="M121 0v364H0V0z"/>
            </clipPath>
            <clipPath id="0bc33365-3d86-4b02-8b74-f4f0244181a4">
                <path d="M1 75h162.68v242H1Zm0 0"/>
            </clipPath>
            <clipPath id="bacd4b3b-64a7-42fc-9347-ae826ae40668">
                <path d="M164 0v372H0V0z"/>
            </clipPath>
            <clipPath id="8588e65d-5baa-44da-948d-47542ce9af20">
                <path d="M99 0v174H0V0z"/>
            </clipPath>
            <mask id="7a18937e-4dec-4401-8578-89e01dbaee11">
                <g filter="url(#9a50f9a2-8171-455d-851a-cc80fd75aed3)">
                    <path fill-opacity=".8" fill="#000000" d="M412.5-37.5v450h-450v-450z"/>
                </g>
            </mask>
            <mask id="92492f9f-9da0-4ddf-9974-f4989a7733b9">
                <g filter="url(#9a50f9a2-8171-455d-851a-cc80fd75aed3)">
                    <path fill-opacity=".8" fill="#000000" d="M412.5-37.5v450h-450v-450z"/>
                </g>
            </mask>
            <mask id="2d9fcbc2-4b7e-4b72-b63b-bd873c28589e">
                <g filter="url(#9a50f9a2-8171-455d-851a-cc80fd75aed3)">
                    <path fill-opacity=".8" fill="#000000" d="M412.5-37.5v450h-450v-450z"/>
                </g>
            </mask>
            <filter id="9a50f9a2-8171-455d-851a-cc80fd75aed3" height="100%" width="100%" y="0%" x="0%">
                <feColorMatrix color-interpolation-filters="sRGB" values="0 0 0 0 1 0 0 0 0 1 0 0 0 0 1 0 0 0 1 0"/>
            </filter>
        </defs>
        <g mask="url(#7a18937e-4dec-4401-8578-89e01dbaee11)">
            <g clip-path="url(#68a2ab89-362f-4c8e-81e4-e4253175b8a7)" transform="translate(201 11)">
                <path d="M114.366 75.805q1.5 7.237 1.61 14.797.328 13.47-.281 26.937a599 599 0 0 1-1.829 26.938q-.954 11.625-1.843 23.25-.721 9.581-1.438 19.203a1686 1686 0 0 1-1.844 21.922q-1.003 10.91-1.953 21.937a1853 1853 0 0 0-1.828 25.485q-.393 8.56-.89 16.969-.457 9.574-.954 19.25a597 597 0 0 0-1.109 47.468q0 1.513-.219 2.844-.393 1.452-2 1.719-4.909.95-5.515-3.672a78 78 0 0 1-.328-7.125v-13.453q-.284-18.096-.11-36.344a581 581 0 0 1 1.656-34.062 4002 4002 0 0 1 3.235-41.344q1.06-12.623 2.062-25.094 2.45-31.217 4.782-62.328 1.216-17.419.5-34.89c-.262-6.938-1.415-10.524-3.454-10.766q-3.064-.358-8.015 6.843-4.939 7.207-11.063 19.75-6.129 12.55-12.703 28.047a1379 1379 0 0 0-12.844 31.422 2199 2199 0 0 0-11.625 30.047q-5.344 14.128-8.89 23.984a3480 3480 0 0 1-4.75 13.188q-.392.938-.39 1.062a1561 1561 0 0 1-13.079 33.657 95 95 0 0 1-4.39 8.968c-.337.551-.704 1.16-1.11 1.829q-1.125 2.449-3.562 3.28-3.563.999-6.188-.03c-1.742-.68-2.668-2.5-2.781-5.47q-.222-9.627.172-19.202.216-4.889.328-9.907.997-26.589 2.234-53.25.938-17.871 2.063-35.625.888-13.734 1.718-27.421.216-5.514.72-10.922c.663-7.676 1-15.391 1-23.141q-.001-1.453.108-2.953c.258-2.52 1.657-3.781 4.188-3.781q3.78.002 4.172 3.953.434 5.344.266 10.86-.16 5.502-.547 11v.78q-.503 6.58-.953 13.313a862 862 0 0 0-1.11 14.344q-1.828 33.675-3.562 67.343a4612 4612 0 0 0-2.22 45.297c-.155 4.707.29 7.004 1.345 6.89q1.592-.159 4.187-5c1.727-3.226 3.547-7.171 5.453-11.827a596 596 0 0 0 5.313-13.344q2.45-6.373 3.562-9.547.341-.95.5-1.344c2.602-7.082 5.61-15.726 9.016-25.937a1991 1991 0 0 1 11.61-33.125 746 746 0 0 1 13.406-34.594q7.09-17.027 14.609-30.656 7.513-13.641 15.36-21.375 2.343-2.345 5.015-3.89 5.28-2.842 9.61-.954 4.341 1.892 5.577 7.797m0 0"/>
            </g>
        </g>
        <g mask="url(#92492f9f-9da0-4ddf-9974-f4989a7733b9)">
            <g clip-path="url(#bacd4b3b-64a7-42fc-9347-ae826ae40668)" transform="translate(48)">
                <g clip-path="url(#0bc33365-3d86-4b02-8b74-f4f0244181a4)">
                    <path d="M162.318 220.048q.734.282.735 1.234-.001.938-.453 2.063a19 19 0 0 0-.688 1.922 247.5 247.5 0 0 1-18.86 35.687q-10.877 17.074-26.124 30.094a139.6 139.6 0 0 1-17.047 12.11q-8.97 5.419-19.281 9.093-6.534 2.343-11.891 3.281-5.36.95-12.469.844-4.02.106-8.062-.203a46 46 0 0 1-8.157-1.406q-19.077-5.438-28.359-23.204-3.157-6.188-4.938-12.546A94 94 0 0 1 4.1 266.235q-2.188-17.184-.171-33.812 2.684-23.094 9.359-44.375a254.5 254.5 0 0 1 16.875-40.953 188 188 0 0 1 27.344-40 116.5 116.5 0 0 1 25.61-21.547q10.717-6.81 23.843-8.938c3.851-.687 7.75-.515 11.687.516q9.218 2.238 11.75 11.344c1.188 4.93 1.188 11.03 0 18.312q-1.78 10.922-5.625 22.781-3.83 11.863-8.5 22c-3.117 6.762-5.968 12.149-8.562 16.157-.774 1.03-1.703 1.656-2.797 1.875q-1.628.313-3.625-.203-1.032-.236-1.672-1.125-.628-.889-.219-1.625.341-1.265.97-2.407.28-.638.624-1.375 1.436-3.435 3.328-7.562 4.124-9.234 8.594-20.203c2.977-7.32 5.395-14.61 7.25-21.86q2.78-10.888 2.031-19.718-1.377-14.907-15.125-11.11-6.081 1.658-11.297 4.406a88 88 0 0 0-10.015 6.188 120 120 0 0 0-17.453 15.39 153 153 0 0 0-14.407 18.016q-32.33 46.987-39.718 106.531-2.174 17.25.125 35.188 1.247 10.31 6.015 20.281 4.812 9.795 11.422 14.985 6.623 5.184 13.75 6.812 7.137 1.64 13.438.89 11.062-1.252 20.812-5.78 19.358-8.83 31.656-18.798 12.293-9.972 20.625-20.953a268 268 0 0 0 15.625-22.937q2.92-4.764 5.032-9.172 2.529-5.215 6.593-11.625 1.371-2.016 3.047-1.781m0 0"/>
                </g>
            </g>
        </g>
        <g mask="url(#2d9fcbc2-4b7e-4b72-b63b-bd873c28589e)">
            <g clip-path="url(#8588e65d-5baa-44da-948d-47542ce9af20)" transform="translate(103 129)">
                <path d="M33.606 106.625q-.72 2.205-2.86 5.047-2.127 2.848-5.327 3.656-3.205.814-5.532-.218-2.33-1.046-2.562-5.547-2.66 5.126-5.062 6.578-2.393 1.44-4.985 1.094c-1.96-.313-3.281-1.07-3.969-2.282q-1.029-1.81-.687-4.172a14.4 14.4 0 0 1 1.437-4.562q.856-1.623 2.391-3 1.53-1.39 3.219-2.187 2.06-1.044 4.156-.985 2.107.049 4.484 1.375.061.065.063-.094c0-.156.035-.351.11-.593q.123-.358.406-.563.794-.576 1.859-.578 1.078 0 1.656 1.078.106 1.394-.281 3.531-.878 4.723-.016 6.797.872 2.063 3.063 1.922 2.185-.14 5.672-4.312 3.48-4.187 2.765-1.985m-25.797 7.39q1.203.862 2.75-.234 1.56-1.107 3-3.125a27.7 27.7 0 0 0 2.438-4.03q.983-2.028 1.094-3-2.94-1.562-5.047-.532-2.097 1.034-3.344 3.39c-.824 1.563-1.312 3.087-1.469 4.563q-.235 2.205.578 2.969m0 0"/>
                <path d="M53.405 110c1.351-2.133 2.156-3.488 2.406-4.062.25-.57.445-.547.594.078q.233.938-1.297 4.265-1.517 3.317-3.766 5.11-2.25 1.798-4.203 1.328-1.954-.48-2.797-2.719-.844-2.248-.5-5.656 0-.047.047-.281.062-.576.203-1.703.14-1.123.204-2.329.075-1.216-.079-2c-.093-.519-.336-.703-.718-.546q-1.394.752-2.72 2.968a46 46 0 0 0-2.39 4.641c-.718 1.617-1.226 2.922-1.515 3.922-.125.312-.243.648-.344 1-.156.45-.336.902-.531 1.36-.5 1.312-1.383 1.82-2.641 1.515q-1.049-.233-1.234-1.281a27 27 0 0 1-.047-1.547c0-.313-.024-.598-.063-.86q-.093-5.824-.281-11.718.045-.686.594-.938.562-.265 1.312-.266.576.001 1.094.313.514.315.64 1.313c.04.218.063.445.063.671.031.125.047.243.047.344.07.543.11 1.008.11 1.39q-.001.862.109 1.188.124.316.5-.031.373-.341 1.25-1.625a14.4 14.4 0 0 1 3.687-3.906c1.344-.957 2.82-1.36 4.438-1.203q2.061.203 2.781 2.171.282 1.002.281 2.016-.001 1.002-.125 2.016-.063 1.049-.156 2.156-.083.344-.14.672c-.231 2.5-.153 4.18.234 5.031q.577 1.266 1.75.844c.789-.29 1.86-1.504 3.203-3.64m0 0"/>
                <path d="M95.922 107.297a.84.84 0 0 1 .719-.469q.5-.03.828.61.139.159-.25.875a16 16 0 0 1-1 1.625 42 42 0 0 1-1.203 1.656q-.58.737-.813.969c-1.73 1.93-3.469 3.343-5.219 4.25q-2.626 1.347-5.703.578-3.064-.779-6.859-4.375a73 73 0 0 1-1.156-1.266 5 5 0 0 1-.282-.328q-.627-.715-1.39-.187-.786.58-1.594 1.156-.72.517-1.453.969a29.6 29.6 0 0 1-5.14 2.828 12 12 0 0 1-6.047 1q-4.956-.574-5.141-5.485-.045-3.45 1.484-6.187 1.53-2.747 4.266-4.047 2.749-1.294 6.312-.516c.258.055.61.133 1.047.235q.388.14.969.234-.344-.81-.625-1.437a42 42 0 0 1-.922-1.907q-2.39-4.905-3.89-11.203a55.5 55.5 0 0 1-1.47-12.937q.03-6.638 2.22-12.344 2.202-5.719 7.28-9.422 3.218-2.17 6.657-2.36 3.436-.186 6.484 1.5 3.06 1.676 4.97 5.032a26.9 26.9 0 0 1 3.046 9.719q1.044 8.267-.344 15.422a46.1 46.1 0 0 1-4.906 13.53c-2.336 4.243-5.312 8.36-8.937 12.36q-.517.582-.547.922-.035.347.5.969 1.106 1.44 2.406 2.812a12.9 12.9 0 0 0 2.89 2.282q2.248.97 4.813.03 2.577-.949 4.766-2.937 2.185-1.998 3.234-4.156m-25.703 2.313q.667-.574.094-1.313-.345-.42-.672-.86a37 37 0 0 0-2.157-2.374q-1.205-1.218-2.5-1.844c-.867-.426-1.746-.46-2.64-.11q-1.83.862-3.016 3.047-1.173 2.191-1.39 4.5-.205 2.315.89 3.516 1.108 1.208 3.75.234a31 31 0 0 0 7.64-4.796m5.812-5.688q5.531-6.527 8.266-12.844 2.747-6.327 3.719-14.78.28-2.075.25-5.438-.019-3.36-.594-7.016-.58-3.657-2.078-6.656-1.488-3-4.172-4.313-2.69-1.325-6.89 0-4.612 2.708-6.844 7.172-2.22 4.47-2.532 9.953c-.21 3.649.032 7.375.72 11.188.687 3.812 1.644 7.43 2.874 10.843q1.858 5.126 3.984 8.922.235.471.47.953a8.6 8.6 0 0 0 1.827 2.797 6 6 0 0 1 .375-.28q.343-.219.625-.5m0 0"/>
            </g>
        </g>
    </g>
</svg>
