<?xml version="1.0" encoding="UTF-8"?>
<svg data-bbox="0 0.005 555.2 753.801" viewBox="0 0 555.2 753.83" xmlns="http://www.w3.org/2000/svg" data-type="color">
    <g>
        <path d="M492.19 182.93c-.62-.09-1.21-.38-1.67-.85l-19.63-19.77-16.73 7.39c-1.29.57-2.81.16-3.64-.98a3 3 0 0 1 .2-3.77l13.39-14.88-8.07-19.28c-.54-1.3-.11-2.8 1.04-3.61s2.71-.71 3.75.25l15.51 14.24 18.49-8.89c1.29-.62 2.84-.24 3.7.9s.8 2.73-.16 3.8l-13.4 15.05 10.47 26.33a3.001 3.001 0 0 1-3.24 4.08Zm-20.18-27.17c.62.1 1.21.39 1.67.85l10.75 10.83-5.74-14.42c-.42-1.05-.21-2.26.55-3.1l4.67-5.25-6.82 3.28c-1.11.53-2.43.34-3.33-.49l-6.92-6.36 3.52 8.41a3 3 0 0 1-.54 3.17l-5.3 5.89 5.81-2.57a2.93 2.93 0 0 1 1.67-.22Z" fill="#333333" data-color="1"/>
        <path d="M529.07 112.62c-.62-.09-1.21-.38-1.67-.85l-43.22-43.53-37.56 16.6c-1.29.57-2.81.16-3.64-.98a3 3 0 0 1 .2-3.77l29.78-33.11-17.92-42.82c-.54-1.3-.11-2.8 1.04-3.61s2.71-.71 3.75.25l34.54 31.72L535.6 12.7c1.29-.62 2.84-.24 3.7.9s.8 2.73-.16 3.8l-29.77 33.44 22.95 57.72a3.001 3.001 0 0 1-3.24 4.08ZM485.3 61.7c.62.1 1.21.39 1.67.85l34.34 34.58-18.22-45.8c-.42-1.05-.21-2.26.55-3.1l21.04-23.63-29.56 14.21c-1.11.53-2.43.34-3.33-.49l-25.95-23.83 13.37 31.94a3 3 0 0 1-.54 3.17l-21.69 24.11 26.64-11.77a2.93 2.93 0 0 1 1.67-.22Z" fill="#333333" data-color="1"/>
        <path d="M529.5 473.04c-7.74-2.79-17.29-5.4-28.58-7.81-1.45-.31-2.93-.62-4.44-.92l.04 4.51c1.52.32 3.01.62 4.44.93 43.23 9.31 47.21 18.8 47.23 21.89l1.68 214.98c.03 3.71-5.52 16.76-78.11 28.69-51.55 8.47-120.16 13.46-193.19 14.03s-141.7-3.34-193.38-11c-72.77-10.79-78.52-23.75-78.55-27.46L4.96 495.9c-.02-3.09 3.81-12.64 46.88-22.63 1.43-.33 2.91-.66 4.43-1l-.04-4.52c-1.5.33-2.98.66-4.43.99-11.25 2.59-20.77 5.36-28.45 8.26C7.94 482.83.47 489.02.53 495.92L2.21 710.9c.05 6.9 7.61 12.97 23.11 18.56 13.97 5.04 33.89 9.5 59.21 13.25 51.89 7.69 120.81 11.62 194.06 11.04 73.25-.57 142.1-5.58 193.87-14.08 25.26-4.15 45.11-8.92 59-14.18 15.41-5.83 22.88-12.02 22.82-18.92l-1.68-214.98c-.05-6.9-7.61-12.97-23.11-18.56Z" fill="#333333" data-color="1"/>
        <path d="M529.5 473.04c-7.74-2.78-17.29-5.4-28.58-7.81-1.45-.31-2.93-.62-4.44-.92l.04 4.52c1.52.31 3.01.62 4.44.93 43.22 9.31 47.2 18.8 47.22 21.89.03 3.71-5.52 16.76-78.11 28.69-51.55 8.47-120.15 13.45-193.18 14.02s-141.7-3.33-193.38-10.99c-72.77-10.79-78.52-23.75-78.55-27.46-.02-3.09 3.81-12.64 46.88-22.63 1.43-.33 2.91-.66 4.43-1l-.04-4.52c-1.5.33-2.98.66-4.43.99-11.25 2.59-20.77 5.36-28.46 8.26C7.93 482.84.47 489.03.53 495.93c.05 6.9 7.61 12.97 23.11 18.56 13.97 5.04 33.9 9.49 59.22 13.25 51.89 7.69 120.81 11.61 194.06 11.04s142.1-5.57 193.87-14.08c25.26-4.16 45.12-8.92 59.01-14.18 15.41-5.83 22.87-12.02 22.81-18.92-.05-6.9-7.61-12.97-23.11-18.56" fill="#333333" data-color="1"/>
        <path d="M439.17 272.61c-.63-.1-1.27-.21-1.92-.31-.24-.04-.49-.08-.74-.11q-2.025-.315-4.11-.63c-5.44-.81-11.11-1.57-17-2.27-1.46-.17-2.94-.34-4.44-.52l.04 4.47a629 629 0 0 1 20.75 2.7c2.19.32 4.31.66 6.37.99 1.52.25 2.99.5 4.44.74 38.49 6.62 52.56 14.6 52.61 20.15l1.37 174.56c.05 6.04-16.49 15.23-63.07 22.88-41.84 6.88-97.52 10.92-156.8 11.38-59.27.46-115.01-2.7-156.95-8.92-46.69-6.92-63.38-15.85-63.42-21.89l-1.37-174.56c-.05-6.04 16.5-15.22 63.07-22.87 5.22-.86 10.65-1.67 16.28-2.44 1.46-.2 2.94-.4 4.43-.59l-.04-4.47c-1.49.19-2.97.38-4.43.59-5.87.79-11.53 1.64-16.96 2.53-44.4 7.3-66.87 16.48-66.79 27.29l1.37 174.56c.08 10.81 22.7 19.64 67.21 26.24 42.16 6.25 98.14 9.43 157.64 8.97 59.5-.47 115.43-4.53 157.48-11.44 44.4-7.3 66.87-16.48 66.78-27.29l-1.37-174.56c-.08-10.25-20.41-18.72-60.44-25.19Z" fill="#333333" data-color="1"/>
        <path d="M414.67 178.56c-.39-3.76-4.44-6.99-12.38-9.85-7.13-2.57-17.26-4.84-30.13-6.75-4.36-.65-8.96-1.24-13.78-1.78-2.29-.26-4.65-.51-7.04-.74-1.95 1.29-3.88 2.52-5.78 3.7-.1.06-.2.13-.3.19 2.5.21 4.95.45 7.36.69 6.68.68 13 1.45 18.88 2.32 28.33 4.2 37.42 9.37 38.61 12.19.1.22.14.43.14.62l.85 108.63c.02 2.62-8.08 8.4-38.55 13.4-25.99 4.27-60.6 6.78-97.45 7.07-2.93.02-5.95.03-9.26.02-34.86-.09-67.29-2.23-91.28-6.03-28.18-4.46-35.73-9.85-35.75-12.33l-.85-108.63c-.02-2.13 5.32-6.34 23.67-10.53.2-.05.4-.09.61-.14.33-.08.66-.16.99-.22.71-.16 1.44-.32 2.2-.47.38-.08.76-.16 1.16-.24.52-.11 1.06-.22 1.61-.32l.72-.14c2.91-.56 6.13-1.12 9.68-1.68l.38-.06c1.49-.23 3-.46 4.55-.68 1.89-.27 3.81-.54 5.78-.79.65-.08 1.31-.17 1.97-.25 2.56-.32 5.17-.64 7.84-.92 2.45-.27 4.94-.53 7.49-.77a189 189 0 0 1-6.34-3.8l-.01-.01c-1.78.19-3.54.39-5.27.59-.58.07-1.15.14-1.73.2-.86.11-1.71.21-2.56.32-.89.11-1.77.22-2.65.34-1.75.23-3.47.46-5.16.71-1.56.23-3.09.46-4.6.69-.83.13-1.66.27-2.48.4-1.16.19-2.31.39-3.43.58-.11.02-.22.04-.32.06-.61.11-1.21.22-1.82.32q-.885.165-1.74.33c-.93.17-1.84.36-2.73.53-.04.01-.09.02-.14.03-.44.09-.87.18-1.3.27-7.52 1.57-13.74 3.27-18.55 5.1-8.27 3.13-12.27 6.59-12.24 10.6l.85 108.63c.03 3.86 3.8 7.16 11.53 10.07 6.59 2.49 16 4.71 27.96 6.61 24.22 3.83 56.88 5.99 91.97 6.08 3.32 0 6.37 0 9.31-.02 37.07-.29 71.93-2.82 98.14-7.13 12.84-2.11 22.94-4.54 30.02-7.22 8.27-3.13 12.27-6.59 12.24-10.6l-.85-108.63c0-.19 0-.37-.03-.56Zm-115.3-17.64q-1.5-2.265-2.91-4.44c-1.77-.03-3.55-.06-5.33-.08-4.53-.05-9.11-.07-13.72-.05-.74 0-1.49 0-2.24.01-1.15 0-2.29.02-3.44.03-11.32.11-22.41.44-33.11.96-1.8.09-3.6.18-5.38.28 0 .01-.01.02-.02.03-.93 1.49-1.9 3.02-2.92 4.58 1.8-.11 3.63-.21 5.46-.31 11.58-.61 23.66-.99 36.02-1.11 1.14-.02 2.28-.02 3.42-.03.73 0 1.48-.01 2.21-.01 5.6-.02 11.15 0 16.61.09 1.81.02 3.6.05 5.38.09-.01-.01-.03-.03-.03-.04" fill="#333333" data-color="1"/>
        <path d="M400.97 78.17a38.4 38.4 0 0 0-10.32-10.86c-4.06-2.86-8.7-4.92-13.7-6.04-15.84-3.55-31.95 3.27-40.55 16.49A38.35 38.35 0 0 0 329.07 59a38.32 38.32 0 0 0-22.44-14.6c-10-2.24-20.28-.45-28.93 5.03-8.65 5.49-14.66 14.02-16.9 24.02-.86 3.83-1.12 7.73-.8 11.61-.03 2.21.61 23.47 31.11 71.31 0 0 .01.01.01.03.92 1.45 1.88 2.93 2.87 4.44 0 .01.02.03.03.04 4.84 7.4 10.37 15.4 16.69 24.02.43.59 1.11.92 1.81.91.3 0 .59-.07.88-.19 1.36-.61 19.25-8.62 39.24-21.59.11-.07.23-.14.33-.21 1.8-1.17 3.61-2.38 5.42-3.63.12-.08.24-.17.36-.24 15.53-10.69 31.43-24.14 41.27-39.25 2.87-4.1 4.88-8.67 5.98-13.59 2.24-10 .46-20.28-5.03-28.93Zm.7 27.97c-.98 4.36-2.76 8.41-5.3 12.04-.02.02-.03.04-.04.06-10.32 15.88-28.07 30.09-44.65 40.99-.11.08-.22.15-.33.22-1.95 1.29-3.88 2.52-5.78 3.7-.1.06-.2.13-.3.19-14.77 9.18-27.64 15.42-32.06 17.48-5.12-7.04-9.71-13.65-13.81-19.85-.01-.01-.03-.03-.03-.04q-1.5-2.265-2.91-4.44c0-.01-.01-.03-.03-.04-32.03-49.62-32.01-71.01-32.01-71.37v-.27c-.31-3.46-.07-6.95.7-10.37 1.98-8.85 7.29-16.39 14.94-21.24 7.66-4.85 16.75-6.44 25.59-4.46 16.2 3.63 27.57 18.83 26.44 35.37a2.22 2.22 0 0 0 1.89 2.34l1.03.15c.99.16 1.97-.39 2.36-1.31 6.44-14.97 22.67-23.24 38.59-19.67 18.26 4.09 29.79 22.27 25.69 40.54Z" fill="#333333" data-color="1"/>
        <path d="M256.48 104.88c-3.24-13.48-16.85-21.81-30.33-18.57-9.85 2.37-17.17 10.52-18.89 20.15a25.17 25.17 0 0 0-25.54-8.75c-11.58 2.78-19.36 13.21-19.27 24.63.01 1.88.25 3.79.7 5.69.77 3.2 2.13 6.18 4.05 8.83 6.29 9.34 16.25 17.6 26.03 24.18 1.97 1.33 3.94 2.59 5.87 3.79s.01 0 .02.01c12.38 7.63 23.16 12.26 24.01 12.62.29.12.58.17.88.17.7 0 1.37-.33 1.79-.93 3.73-5.27 7.03-10.18 9.92-14.74 0 0 .01-.02.01-.03.99-1.56 1.94-3.08 2.84-4.56 0-.01.01-.02.01-.03 17.22-28.23 18.46-41.71 18.47-44.8h.04c.18-2.57-.03-5.16-.64-7.68Zm-3.78 7.36v.27c0 .15.42 13.3-19.47 45.12 0 .01-.01.02-.02.03-.93 1.49-1.9 3.02-2.92 4.58 0 0-.01.02-.02.03q-3.195 4.92-7.02 10.38c-2.85-1.3-9.15-4.29-16.61-8.57s-.02-.01-.03-.02a189 189 0 0 1-6.34-3.8l-.01-.01c-10.79-6.77-22.54-15.74-29.37-25.89-.02-.02-.03-.04-.04-.06a20.4 20.4 0 0 1-3.35-7.29c-2.67-11.11 4.19-22.31 15.29-24.99 9.68-2.32 19.67 2.57 23.74 11.64.41.92 1.4 1.45 2.38 1.28l.66-.11a2.21 2.21 0 0 0 1.84-2.37c-.84-10.08 5.95-19.47 15.8-21.84 11.11-2.67 22.31 4.19 24.98 15.29.5 2.09.68 4.21.53 6.33Z" fill="#333333" data-color="1"/>
        <path d="M123.7 439.32a979 979 0 0 1-68.6-13.05c-.74-.16-1.48-.33-2.23-.5a3.485 3.485 0 0 1-2.71-3.38l-.52-66.72c0-1.1.5-2.15 1.38-2.82s2.02-.88 3.09-.58c.02 0 .75.21 2.14.58 19.97 5.28 201.87 50.05 438.58-3.62l.35-.08c.61-.14 1.23-.28 1.85-.42 1.04-.24 2.12 0 2.96.66a3.52 3.52 0 0 1 1.33 2.72l.55 70.14a3.504 3.504 0 0 1-2.54 3.39s-.77.22-2.27.62c-18.69 5.01-173.45 43.77-373.36 13.04Zm-66.56-19.77c228.94 51.98 415.18 6.06 437.71.07l-.5-63.11C264.03 408.26 85.4 367.5 56.67 360.19l.46 59.36Z" fill="#333333" data-color="1"/>
        <path d="M180.01 271.63a601 601 0 0 1-43.64-8.35 3.485 3.485 0 0 1-2.71-3.38l-.32-41.29c0-1.1.5-2.15 1.38-2.81.88-.67 2.01-.89 3.08-.58.29.08 29.89 8.44 78.19 12.31 44.55 3.57 114.58 3.95 195.23-14.51 1.03-.24 2.12 0 2.95.67a3.52 3.52 0 0 1 1.33 2.72l.34 43.4a3.495 3.495 0 0 1-2.53 3.39c-.31.09-31.45 8.95-80.89 13.34-37.04 3.29-90.89 4.55-152.4-4.9Zm-39.38-14.56c77.47 17.44 146.6 16.44 191.16 12.49 40.74-3.62 68.73-10.27 77.02-12.41l-.28-36.36c-79.82 17.71-149.02 17.26-193.32 13.69-38.52-3.1-64.8-8.87-74.83-11.36l.27 33.95Z" fill="#333333" data-color="1"/>
        <path d="M46.69 669.01c-14.28-2.19-28.72-4.63-43.31-7.34a3.5 3.5 0 0 1-2.86-3.41L0 591.53c0-1.07.47-2.09 1.31-2.76s1.93-.93 2.98-.68c.58.13 59.67 13.61 156.12 19.76 89 5.68 228.92 6.11 390.1-24.08a3.5 3.5 0 0 1 2.87.74c.8.66 1.27 1.64 1.27 2.67l.55 70.15a3.5 3.5 0 0 1-2.7 3.43c-.61.14-62.25 14.47-160.27 21.68-82.05 6.03-205.63 8.07-345.54-13.43M7.5 655.31c155.61 28.52 294.62 26.73 384.05 20.16 85.99-6.31 143.75-18.12 156.63-20.92l-.49-63.14c-160.24 29.57-299.23 29.08-387.91 23.41-82.15-5.25-137.41-15.8-152.74-18.98l.47 59.47Z" fill="#333333" data-color="1"/>
        <path d="M402.36 168.03c-7.06-2.44-17.1-4.59-29.85-6.4a393 393 0 0 0-13.76-1.69c-2.31-.25-4.66-.49-7.07-.71-.11.08-.22.15-.33.22-1.95 1.29-3.88 2.52-5.78 3.7 2.51.21 4.97.43 7.4.66 6.7.64 13.03 1.38 18.92 2.21 37.89 5.36 38.37 11.75 38.38 12.02 0 .04 0 .21-.14.48-.76 1.63-5.73 7.04-38.05 12.14-25.76 4.06-60.07 6.46-96.59 6.74-36.53.29-70.86-1.57-96.69-5.23-37.89-5.37-38.37-11.76-38.37-12.02 0-.22.26-4.57 21.21-9.41.2-.05.4-.09.61-.14.33-.08.66-.16.99-.22.71-.16 1.44-.32 2.2-.47.38-.08.76-.16 1.16-.24.52-.11 1.06-.22 1.61-.32l.72-.14c2.91-.56 6.13-1.12 9.68-1.68l.38-.06c1.49-.23 3-.46 4.55-.68 1.89-.27 3.81-.54 5.78-.79.65-.08 1.31-.17 1.97-.25 2.56-.32 5.18-.62 7.86-.91 2.45-.27 4.95-.52 7.49-.76 0 0-.02-.01-.03-.02a189 189 0 0 1-6.34-3.8c-1.79.19-3.55.38-5.29.58-.58.07-1.15.14-1.73.2-.86.11-1.71.21-2.56.32-.89.11-1.77.22-2.65.34-1.75.23-3.47.46-5.16.71-1.56.23-3.09.45-4.6.69-.12.01-.25.03-.37.05-1.91.3-3.76.61-5.54.92-.11.02-.22.04-.32.06-.61.11-1.21.22-1.82.32q-.885.165-1.74.33c-.93.17-1.84.36-2.73.53-.04.01-.09.02-.14.03-.44.09-.87.18-1.3.27-6.46 1.37-11.87 2.84-16.16 4.39-8.34 3.02-12.21 6.26-12.17 10.18.01 1.59.67 3.06 2 4.44 1.95 2 5.35 3.82 10.33 5.54 7.06 2.44 17.1 4.59 29.85 6.4 26.04 3.69 60.61 5.56 97.35 5.27 36.73-.29 71.27-2.7 97.25-6.8 12.72-2.01 22.73-4.31 29.75-6.86 3.28-1.19 5.86-2.41 7.79-3.7 2.75-1.82 4.18-3.78 4.36-5.93.02-.18.02-.36.02-.54-.03-3.92-3.95-7.09-12.33-9.99Zm-130.58-7.2c1.14-.02 2.28-.02 3.42-.03.73 0 1.48-.01 2.21-.01 5.59-.04 11.13-.02 16.59.05 1.8.02 3.6.05 5.38.08q-1.5-2.265-2.91-4.44c0-.01-.01-.03-.03-.04-1.77-.02-3.54-.05-5.33-.06-4.52-.05-9.1-.06-13.71-.03-.74 0-1.49 0-2.24.01-1.15 0-2.29.02-3.44.03-11.33.13-22.44.47-33.13.99-1.81.08-3.61.18-5.39.28-.93 1.49-1.9 3.02-2.92 4.58 0 0-.01.02-.02.03 1.81-.11 3.63-.21 5.47-.31 11.57-.61 23.66-1 36.04-1.14Z" fill="#333333" data-color="1"/>
        <path d="M439.16 271.37q-.945-.105-1.92-.21c-.24-.03-.49-.05-.74-.08-1.19-.13-2.39-.26-3.61-.38-5.59-.57-11.43-1.11-17.49-1.6-1.46-.12-2.94-.24-4.44-.35l.02 3.12c1.5.12 2.97.24 4.44.36a790 790 0 0 1 22.68 2.18c1.52.17 2.99.34 4.44.51 38.48 4.58 52.53 10.19 52.56 14.11.03 4.26-16.4 10.75-62.63 16.24-41.53 4.93-96.79 7.89-155.62 8.35-58.82.46-114.12-1.64-155.72-5.91-46.31-4.76-62.85-11-62.88-15.25s16.41-10.75 62.63-16.23a844 844 0 0 1 17.8-1.91l-.02-3.12c-1.49.14-2.97.29-4.43.44-4.84.49-9.54 1-14.07 1.54-44.08 5.23-66.4 11.73-66.34 19.32 0 .94.36 1.86 1.05 2.75 4.89 6.33 26.9 11.55 65.59 15.52 41.82 4.3 97.37 6.41 156.42 5.95s114.56-3.44 156.31-8.4c32.74-3.88 53.48-8.47 61.95-13.69 2.94-1.8 4.4-3.68 4.39-5.63-.06-7.22-20.36-13.13-60.38-17.61Z" fill="#333333" data-color="1"/>
    </g>
</svg>
