<?xml version="1.0" encoding="UTF-8"?>
<svg data-bbox="0.01 -0.008 594.41 544.788" viewBox="0 0 594.43 544.8" xmlns="http://www.w3.org/2000/svg" data-type="color">
    <g>
        <path d="M463.41 211.2h-.06l-267.15-3.79a3.95 3.95 0 0 1-3.28-1.83 3.97 3.97 0 0 1-.29-3.75c2.28-5.14 22.48-50.47 30.94-58.33 1.41-1.31 3.78-3.51 33.04-4.9 16.78-.8 39.06-1.15 62.73-.98 40.89.29 95.62 2.33 115.31 7.14 4.66 1.14 8.72 4.86 10.87 9.95l21.53 50.99c.52 1.23.38 2.65-.36 3.76a3.96 3.96 0 0 1-3.29 1.75Zm-261.07-11.64 255.05 3.62-19.17-45.39c-1.18-2.79-3.22-4.78-5.45-5.33-37.57-9.18-192.97-8.11-203.99-2.96-5.1 5.09-17.95 31.32-26.44 50.06" fill="#333333" data-color="1"/>
        <path d="m443.79 209.9-225.34-.42a3.96 3.96 0 0 1-3.39-1.92 3.96 3.96 0 0 1-.11-3.9c1.85-3.5 18.24-34.34 25.69-40.29 1.33-1.06 3.34-2.67 28.38-4.01 14.34-.77 33.37-1.27 53.59-1.4 34.93-.23 81.66.67 98.43 3.98 4.15.82 7.78 3.69 9.69 7.68l16.63 34.6c.59 1.23.51 2.68-.22 3.83a3.97 3.97 0 0 1-3.35 1.85m-218.71-8.34 212.39.4-13.9-28.91c-.84-1.75-2.37-2.99-4.08-3.33-31.69-6.26-164.23-3.82-174.12.03-4.1 3.56-13.54 19.49-20.29 31.82Zm20.14-31.75" fill="#333333" data-color="1"/>
        <path d="M196.3 208.42h-26.96a3.96 3.96 0 0 1-3.96-3.99s.1-16.24.13-25.37c.06-17.36 37.18-32.41 50.17-36.31 8.66-2.6 12.39-2.52 14.26.29.43.65 1.65 2.94-.42 5.66-18.31 29.21-29.43 56.95-29.54 57.22-.6 1.51-2.06 2.5-3.69 2.5Zm-22.98-7.93h20.32c2.96-7.02 12.16-27.9 25.83-50.6-10.2 2.91-30.1 11.15-40.38 20.44-3.64 3.29-5.65 6.41-5.66 8.76-.02 6.3-.08 16-.11 21.4m49.89-56.59 3.06 2.52z" fill="#333333" data-color="1"/>
        <path d="M163.62 210.05h-.04l-88.84-.33c-5.37-.02-9.72-4.41-9.7-9.78l.08-21.25c.02-5.37 4.43-9.75 9.78-9.7l88.84.33c2.59 0 5.04 1.03 6.87 2.88a9.66 9.66 0 0 1 2.83 6.89l-.08 21.25c0 2.59-1.03 5.04-2.88 6.87a9.65 9.65 0 0 1-6.86 2.83Zm-88.76-33.13c-.98 0-1.81.82-1.81 1.8l-.08 21.25c0 .98.82 1.81 1.8 1.82l88.84.33c.64 0 1.07-.33 1.27-.53s.54-.63.54-1.27l.08-21.25c0-.64-.33-1.08-.53-1.28s-.63-.54-1.27-.54z" fill="#333333" data-color="1"/>
        <path d="M66.15 533.34c-5-.31-9.66-.81-14-1.52-11.79-1.94-21.16-5.37-28.35-10.35-11.06-7.67-16.88-19.1-17.81-34.96V302.13c.29-12.97 4.15-22.94 13.75-35.55 2.8-3.67 5.64-7.48 8.39-11.16 1.95-2.61 3.92-5.25 5.88-7.84 3.17-4.2 6.3-8.27 9.28-11.98 2.27-5.36 5.59-10.27 9.85-14.49a47 47 0 0 1 4.38-3.84 3.02 3.02 0 0 0-1.47-1.28c-.98-.4-2.12-.25-2.95.41-4.21 3.25-9.4 9.1-14.99 16.08-4.75 5.94-9.81 12.69-14.78 19.36-2.74 3.66-5.57 7.44-8.35 11.1C4.53 276.67.33 287.62.01 302.06v184.71c1.03 17.87 7.69 30.83 20.38 39.63 10.55 7.32 25.13 11.56 44.37 12.87 3.35.23 6.84.37 10.48.42h.04c.81 0 1.59-.33 2.16-.93.54-.57.82-1.29.83-2.06-4.21-.55-8.28-1.68-12.13-3.35Z" fill="#333333" data-color="1"/>
        <path d="m543.1 203.58-457.68-1.71h-.2c-10.91 0-21.31 3.37-30 9.63a50.4 50.4 0 0 0-6.3 5.34 51.2 51.2 0 0 0-10.82 15.64c-2.12 4.75-3.5 9.83-4.09 15.09a53 53 0 0 0-.33 5.65l-.89 238.14c-.05 13.76 5.26 26.72 14.96 36.49 1.4 1.41 2.87 2.73 4.4 3.96a50.7 50.7 0 0 0 12.61 7.44c4.16 1.71 8.56 2.87 13.1 3.43 2.06.25 4.15.39 6.27.39l457.68 1.71h.19c28.33 0 51.43-22.99 51.53-51.34l.89-238.14c.1-28.42-22.93-51.62-51.34-51.73Zm44.45 289.85c-.09 25.05-20.5 45.37-45.54 45.37h-.17l-457.68-1.71c-.95 0-1.9-.03-2.84-.1-1.02-.07-2.03-.16-3.03-.3-4.21-.55-8.28-1.68-12.13-3.35-5.22-2.27-10.01-5.54-14.15-9.7-8.56-8.63-13.26-20.09-13.22-32.26l.89-238.14c.03-6.17 1.27-12.15 3.61-17.65 2.27-5.36 5.59-10.27 9.85-14.49a47 47 0 0 1 4.38-3.84c.92-.7 1.85-1.36 2.81-1.99 7.33-4.82 15.91-7.4 24.89-7.4h.17l457.68 1.71c25.11.09 45.46 20.61 45.37 45.71z" fill="#333333" data-color="1"/>
        <path d="M437.73 497.47c-9.6 2.72-20.65 4.95-33.21 6.7-11.81 1.64-24.97 2.87-39.53 3.69-72.07 4.08-133.3-47.19-139.45-116.71-3.28-37.13 9.74-75.52 34.81-102.72 21.99-23.84 50.98-36.85 81.63-36.62 25.95.19 47.47 1.47 65.14 3.95 12.61 1.76 23.25 4.15 32.14 7.19 9.7 1.68 19.03 4.55 27.84 8.47-.18-.15-.36-.32-.54-.47-6.53-5.63-15.14-10.24-26.2-13.9-22.11-7.35-53.98-10.9-98.34-11.23h-.82c-32.06 0-62.3 13.67-85.25 38.56-23.54 25.51-36.9 60.46-36.9 95.41 0 3.97.17 7.94.52 11.9 6.19 70.05 65.77 122.41 137.41 122.41 2.77 0 5.55-.08 8.35-.24 29.95-1.7 54.17-5.11 73.23-10.43 19.03-5.33 32.91-12.54 42.21-21.82a117.7 117.7 0 0 1-43.04 15.88Z" fill="#333333" data-color="1"/>
        <path d="M543.33 369.08c-5.09-57.51-48.59-102.57-102.96-112.05a124 124 0 0 0-32.43-1.36c-.27.03-.54.05-.81.08-32.91 3.12-62.69 18.77-83.94 44.13-19.01 22.68-29.15 50.72-29.15 79.96 0 3.73.16 7.47.5 11.22 2.93 33.22 18.64 63.33 44.2 84.75 18.99 15.9 41.74 25.61 65.79 28.35 4.68.54 9.41.81 14.18.81 3.72 0 7.46-.16 11.21-.5 2.91-.26 5.8-.62 8.64-1.06 64.18-10.17 110.57-68.65 104.76-134.33Zm-62.56 112.51a117.7 117.7 0 0 1-43.04 15.88c-2.75.45-5.52.79-8.34 1.04-31.63 2.79-62.46-6.89-86.8-27.29-12.18-10.2-21.99-22.46-29.13-36.13-7.13-13.66-11.56-28.74-12.96-44.55-2.8-31.63 6.89-62.46 27.29-86.8 20.39-24.34 49.04-39.3 80.67-42.09 3.55-.32 7.07-.46 10.56-.46 6.89 0 13.65.6 20.26 1.76 9.7 1.68 19.03 4.55 27.84 8.47 38.19 17.01 66.31 53.68 70.25 98.2 4.1 46.48-19.25 89.17-56.59 111.99Z" fill="#333333" data-color="1"/>
        <path d="M423.15 478.09c-23.04 0-45.14-8-63.01-22.97-20.15-16.88-32.52-40.59-34.83-66.77s5.71-51.7 22.58-71.85c16.88-20.15 40.59-32.52 66.77-34.83 54.06-4.78 101.9 35.31 106.68 89.36 2.31 26.18-5.71 51.7-22.58 71.85-16.88 20.15-40.59 32.52-66.77 34.83-2.95.26-5.9.39-8.83.39Zm.24-188.88c-2.66 0-5.33.12-8.03.35-24.07 2.13-45.87 13.5-61.39 32.03-15.52 18.52-22.89 41.98-20.76 66.06 2.13 24.07 13.5 45.87 32.03 61.39 18.52 15.52 41.99 22.89 66.05 20.76 24.07-2.13 45.87-13.5 61.39-32.03s22.89-41.98 20.76-66.06c-4.15-46.99-43.73-82.51-90.05-82.51Z" fill="#333333" data-color="1"/>
        <path d="M205.96 287.93h-.08l-117.38-.44a17.93 17.93 0 0 1-11.66-4.37c-3.67-3.19-5.92-7.8-6.16-12.64-.02-.28-.03-.64-.02-.98l.1-27.16c.02-4.78 1.9-9.27 5.29-12.64 3.38-3.35 7.85-5.19 12.6-5.19h.08l54.2.2h.13l63.05.24c4.65.02 9.05 1.81 12.38 5.03a17.9 17.9 0 0 1 5.23 10.04c0 .03.01.06.02.1.14.93.22 1.87.21 2.81l-.1 27.17c-.01 4.78-1.89 9.27-5.29 12.64-3.38 3.35-7.85 5.2-12.6 5.2Zm-117.3-55.5c-5.48 0-9.94 4.45-9.97 9.93l-.1 27.18c0 .18 0 .33.01.48.14 2.79 1.36 5.29 3.44 7.1a10 10 0 0 0 6.49 2.43l117.38.44c2.67 0 5.17-1.02 7.06-2.89a9.87 9.87 0 0 0 2.94-7.04l.1-27.18c0-.5-.03-.98-.1-1.46 0-.03-.01-.07-.02-.11a9.87 9.87 0 0 0-2.92-5.64 9.9 9.9 0 0 0-6.9-2.8l-62.93-.24h-.13l-54.33-.2h-.04Z" fill="#333333" data-color="1"/>
        <path d="M544.8 278.63c-9.29 0-18.09-5.59-21.71-14.74-4.72-11.95 1.16-25.52 13.11-30.25 11.95-4.72 25.52 1.16 30.25 13.11 4.72 11.95-1.16 25.52-13.11 30.25-2.8 1.11-5.69 1.63-8.54 1.63m-.03-38.7c-1.91 0-3.82.36-5.66 1.08a15.3 15.3 0 0 0-8.46 8.19c-1.63 3.77-1.7 7.95-.19 11.77s4.42 6.82 8.19 8.46c3.77 1.63 7.95 1.7 11.77.19s6.82-4.42 8.46-8.19c1.63-3.77 1.7-7.95.19-11.77a15.3 15.3 0 0 0-8.19-8.46c-1.96-.85-4.04-1.28-6.11-1.28Z" fill="#333333" data-color="1"/>
        <path d="M220.67 527.91h-.05l-87.55-.33c-3.07-.01-5.95-1.22-8.13-3.41a11.45 11.45 0 0 1-3.35-8.15l.04-11.88c.02-6.34 5.19-11.48 11.52-11.48h.04l87.55.33c3.07.01 5.96 1.22 8.13 3.41a11.45 11.45 0 0 1 3.35 8.15l-.04 11.88c-.01 3.07-1.22 5.96-3.41 8.13-2.18 2.16-5.05 3.35-8.11 3.35Zm-87.51-27.32c-1.97 0-3.58 1.6-3.59 3.58l-.04 11.88a3.62 3.62 0 0 0 3.58 3.61l87.55.33h.02c.94 0 1.84-.37 2.52-1.05s1.06-1.58 1.07-2.53l.04-11.88a3.62 3.62 0 0 0-3.58-3.61l-87.55-.33h-.01Z" fill="#333333" data-color="1"/>
        <path d="M566.33 158.81c-.89 0-1.77-.35-2.43-1.02l-24.69-25.26-21.36 9.24c-1.47.64-3.19.16-4.12-1.15s-.82-3.08.26-4.27l17.15-18.77-10.06-24.56c-.61-1.48-.1-3.18 1.21-4.09s3.08-.78 4.25.31l19.56 18.25 23.59-11.11c1.46-.69 3.21-.25 4.18 1.05.96 1.3.88 3.1-.21 4.3l-17.17 18.98 13 33.45c.58 1.51.03 3.21-1.33 4.09-.57.36-1.2.54-1.84.54ZM540 125.08c.9 0 1.78.35 2.43 1.02l14.7 15.04-7.74-19.91c-.47-1.2-.22-2.56.65-3.51l7.19-7.95-10.31 4.86c-1.26.59-2.75.36-3.77-.59l-9.91-9.24 5 12.2c.5 1.22.25 2.61-.64 3.58l-7.9 8.65 8.95-3.87c.43-.19.89-.28 1.35-.28" fill="#333333" data-color="1"/>
        <path d="M473.6 138.79c-1.03 0-2.04-.47-2.71-1.34l-42.65-55.98-45.22 13.26c-1.54.45-3.18-.23-3.95-1.64-.76-1.41-.44-3.16.78-4.2l38.84-33.21-13.98-51.39a3.402 3.402 0 0 1 5.89-3.08l34.54 41.25L495 26.09c1.54-.51 3.22.15 4.02 1.56s.49 3.19-.74 4.25l-38.87 33.58 17.47 69.08a3.38 3.38 0 0 1-1.82 3.89c-.47.23-.98.34-1.47.34Zm-44.07-64.64c1.04 0 2.05.48 2.7 1.34l33.99 44.61-13.91-55c-.32-1.25.1-2.56 1.07-3.41l27.61-23.86-35.93 11.8a3.41 3.41 0 0 1-3.67-1.05l-26.06-31.12 10.47 38.5c.35 1.27-.07 2.62-1.07 3.48l-28.42 24.3 32.24-9.46c.32-.09.64-.14.96-.14Z" fill="#333333" data-color="1"/>
    </g>
</svg>
