<?xml version="1.0" encoding="UTF-8"?>
<svg data-bbox="0.005 -0.004 738.485 610.964" viewBox="0 0 738.49 610.96" xmlns="http://www.w3.org/2000/svg" data-type="color">
    <g>
        <path d="M593.68 107.67q-.33 0-.66-.06a3.5 3.5 0 0 1-2.84-3.39l-.57-48.06-29.94-11.06a3.5 3.5 0 0 1-2.25-3.78 3.49 3.49 0 0 1 3.22-2.99l34.66-2.37 13.22-33.74c.6-1.53 2.19-2.44 3.8-2.18 1.62.26 2.84 1.61 2.94 3.25l2.12 36.51 33.82 11.28a3.495 3.495 0 0 1-.85 6.8l-34.85 2.56-18.6 45.06a3.495 3.495 0 0 1-3.23 2.16Zm-16.29-63.48 16.9 6.24c1.36.5 2.27 1.79 2.28 3.24l.4 33.36 12.9-31.25a3.5 3.5 0 0 1 2.98-2.15l19.6-1.44-19.51-6.51a3.48 3.48 0 0 1-2.38-3.11l-1.33-22.95-8.21 20.95a3.49 3.49 0 0 1-3.02 2.21l-20.59 1.41Z" fill="#333333" data-color="1"/>
        <path d="M199.57 103.81c-.92 0-1.82-.36-2.5-1.05l-36.75-37.59-32.11 13.89c-1.51.65-3.28.16-4.23-1.18-.96-1.34-.85-3.17.27-4.39l25.67-28.09-15.03-36.72c-.62-1.52-.1-3.27 1.25-4.2s3.17-.8 4.37.32l29.29 27.32 35.33-16.64c1.5-.71 3.31-.26 4.3 1.08a3.5 3.5 0 0 1-.22 4.43l-25.67 28.38 19.31 49.68a3.492 3.492 0 0 1-3.25 4.76Zm-38.44-46.3c.92 0 1.83.37 2.5 1.05l26.48 27.09-13.9-35.76c-.48-1.23-.22-2.63.67-3.61l15.41-17.03-21.68 10.21a3.48 3.48 0 0 1-3.87-.61l-19.35-18.06 9.83 24.01c.51 1.25.26 2.68-.65 3.68l-16.15 17.68 19.35-8.37c.45-.19.92-.29 1.39-.29Z" fill="#333333" data-color="1"/>
        <path d="M51.52 600.88h-.09l-9.48-.04c-12.56-.05-22.75-10.31-22.7-22.87l.69-184.75c.02-6.07 2.42-11.77 6.75-16.07 4.31-4.28 10-6.63 16.03-6.63h.09l9.48.04c12.56.05 22.75 10.31 22.7 22.87l-.69 184.75c-.02 6.07-2.42 11.77-6.75 16.07-4.31 4.28-10 6.63-16.03 6.63m-8.79-222.19c-3.87 0-7.52 1.51-10.29 4.26-2.78 2.76-4.32 6.42-4.34 10.31l-.69 184.75c-.03 8.07 6.51 14.65 14.57 14.68l9.48.04h.06c3.87 0 7.52-1.51 10.29-4.26 2.78-2.76 4.32-6.42 4.34-10.31l.69-184.75c.03-8.07-6.51-14.65-14.57-14.68l-9.48-.04z" fill="#333333" data-color="1"/>
        <path d="M34.52 380.6c-1.09 0-2.14-.44-2.91-1.22-.8-.81-1.22-1.92-1.16-3.06l5.04-102.66c.03-12.64-4.46-24.59-12.62-33.65C9.74 225.45 2.35 212.41.9 201.26-.69 189.07.05 159 1.47 134.6c1.35-23.09 3.79-51.66 7.74-56.59 1.14-1.43 2.48-1.83 3.4-1.91 1.39-.13 2.75.34 3.82 1.3 3.97 3.56 4.74 15.63 5.48 58.33.24 13.74.49 27.94 1.08 40.72v.41c-.21 4.09.47 10.63 2.27 12.59 2.12-5.94 2.02-28.58 1.94-45.41-.09-21.11-.19-42.93 2.19-57.22 1.38-8.3 3.23-16.38 9.16-15.83 3.9.35 6.97 4.1 9.28 21.24 1.59 11.85 2.34 27.02 2.1 42.72l-.09 5.88c-.32 20.8-.57 37.36.44 45.67.67-8.41.81-22.64.93-34.75.52-52.6 2.09-75.36 10.53-80.15 3.08-1.75 5.51-.84 6.69-.15 6.27 3.7 6.34 17.98 5.92 52.79-.14 11.36-.3 24.23-.06 36.96.24 13.23 1.04 20.58 1.87 24.66.52-8.54.56-23.52.6-36.24.18-60.35 1.65-72.86 8.74-74.37 2.18-.47 4.38.3 6.04 2.1 5.19 5.63 8.09 27.58 8.63 65.24.37 25.92-.67 57.48-3.05 65.42-1.98 6.62-9.35 17.09-21.9 31.11-8.96 10.01-13.96 23.04-14.09 36.68l3.08 99.86c.03 1.08-.37 2.13-1.11 2.92s-1.77 1.25-2.85 1.28l-25.61.74zM12.68 98.25c-3.37 27.99-5.92 84.93-3.7 101.96 1.54 11.81 11.69 25.2 19.94 34.34 9.55 10.59 14.78 24.52 14.72 39.23v.19l-4.83 98.35 17.12-.5-2.96-95.86v-.16c.12-15.66 5.86-30.62 16.17-42.13 15.4-17.21 19.25-24.94 20.17-28.02 1.64-5.47 3.15-32.84 2.7-63.37-.48-32.3-2.82-48.68-4.78-55.56-2.16 11.87-2.25 43.06-2.31 62.89-.03 11.87-.07 23.09-.37 31.37-.46 12.69-1.24 16.77-5.22 17.59-2.38.49-4.59-.03-6.41-1.48-3.83-3.07-6.3-10.12-6.78-35.76-.24-12.85-.08-25.79.06-37.21.21-17.61.45-37.3-1.38-43.98-1.13 2.4-2.95 8.49-4.06 23.71-1.05 14.27-1.23 32.17-1.38 47.96-.12 11.92-.23 23.18-.69 31.35-.57 9.95-1.39 16.99-6.86 16.99h-.02c-2.2 0-4.17-.83-5.68-2.37-5.22-5.32-5.02-18.36-4.42-57.09l.09-5.88c.36-23.91-1.62-41.75-3.6-50.58-.24 1.1-.48 2.39-.74 3.91-2.27 13.61-2.16 36.05-2.08 55.85.18 39.29-.17 52.93-8.23 53.89-2.78.33-5.3-.48-7.31-2.36-5.28-4.94-5.11-16.17-4.98-18.9-.6-12.84-.84-27.03-1.08-40.76-.22-12.6-.47-26.99-1.08-37.63Z" fill="#333333" data-color="1"/>
        <path d="M715.79 610.96h-10.44c-12.52 0-22.7-10.19-22.7-22.7V408.75c0-12.52 10.18-22.7 22.7-22.7h10.44c12.52 0 22.7 10.18 22.7 22.7v179.51c0 12.52-10.18 22.7-22.7 22.7m-10.44-8.16h10.44c8.02 0 14.55-6.53 14.55-14.55V408.74c0-8.02-6.53-14.55-14.55-14.55h-10.44c-8.02 0-14.55 6.53-14.55 14.55v179.51c0 8.02 6.53 14.55 14.55 14.55" fill="#333333" data-color="1"/>
        <path d="M722.23 394.59h-.05l-21.6-.23a4.08 4.08 0 0 1-4.03-3.86c-.65-12.01-2.89-44.77-5.35-52.06-.76-2.24-10.05-1.49-14.52-1.14-7.95.64-14.82 1.19-18.01-3.21-5.8-7.98-7.39-58.83 3.23-123.5 11.07-67.45 60.56-121.81 62.66-124.09a4.09 4.09 0 0 1 4.52-1.02c1.57.63 2.59 2.17 2.56 3.86l-5.33 301.25a4.083 4.083 0 0 1-4.08 4.01Zm-17.75-8.35 13.74.15 5.06-285.68c-14.26 17.91-45.17 61.44-53.33 111.2-11.19 68.18-7.52 111.87-4.75 117.25 1.57.76 7.34.29 10.84.01 9.43-.76 20.1-1.61 22.9 6.66 2.81 8.32 4.87 39.08 5.55 50.42Z" fill="#333333" data-color="1"/>
        <path d="M365.03 589.18c-134.84 0-244.54-109.7-244.54-244.54S230.19 100.1 365.03 100.1s244.54 109.7 244.54 244.54-109.7 244.54-244.54 244.54m0-480.93c-130.34 0-236.39 106.04-236.39 236.39s106.04 236.39 236.39 236.39 236.39-106.04 236.39-236.39-106.04-236.39-236.39-236.39" fill="#333333" data-color="1"/>
        <path d="M365.03 523.2c-98.46 0-178.56-80.1-178.56-178.56s80.1-178.56 178.56-178.56 178.56 80.1 178.56 178.56-80.1 178.56-178.56 178.56m0-348.97c-93.96 0-170.41 76.44-170.41 170.41s76.44 170.41 170.41 170.41 170.41-76.44 170.41-170.41S459 174.23 365.03 174.23" fill="#333333" data-color="1"/>
    </g>
</svg>
