<?xml version="1.0" encoding="UTF-8"?>
<svg data-bbox="0.001 -0.002 677.96 608.182" viewBox="0 0 677.97 608.18" xmlns="http://www.w3.org/2000/svg" data-type="color">
    <g>
        <path d="M105.38 131.33a3.893 3.893 0 0 1-3.9-3.85l-.61-50.96L69.16 64.8a3.906 3.906 0 0 1-2.51-4.21 3.89 3.89 0 0 1 3.59-3.33l36.74-2.51L121 18.99a3.91 3.91 0 0 1 4.24-2.43c1.81.29 3.17 1.8 3.28 3.62l2.24 38.69 35.84 11.95a3.89 3.89 0 0 1 2.63 4.18 3.89 3.89 0 0 1-3.58 3.4l-36.94 2.72-19.73 47.8a3.9 3.9 0 0 1-3.6 2.41M88.92 63.79l17.17 6.34c1.51.56 2.53 2 2.55 3.61l.41 34.58 13.37-32.4a3.91 3.91 0 0 1 3.32-2.4l19.93-1.47-19.88-6.63a3.895 3.895 0 0 1-2.66-3.47l-1.37-23.57-8.43 21.5a3.92 3.92 0 0 1-3.36 2.47z" fill="#333333" data-color="1"/>
        <path d="M38.77 583.73a3.893 3.893 0 0 1-3.9-3.85l-.61-50.96L2.55 517.2a3.906 3.906 0 0 1-2.51-4.21 3.89 3.89 0 0 1 3.59-3.33l36.74-2.51 14.02-35.76a3.91 3.91 0 0 1 4.24-2.43c1.81.29 3.17 1.8 3.28 3.62l2.24 38.69 35.84 11.95a3.89 3.89 0 0 1 2.63 4.18 3.89 3.89 0 0 1-3.58 3.4l-36.94 2.72-19.73 47.8a3.9 3.9 0 0 1-3.6 2.41m-16.46-67.54 17.17 6.34c1.51.56 2.53 2 2.55 3.61l.41 34.58 13.37-32.4a3.91 3.91 0 0 1 3.32-2.4l19.93-1.47-19.88-6.63a3.895 3.895 0 0 1-2.66-3.47l-1.37-23.57-8.43 21.5a3.92 3.92 0 0 1-3.36 2.47z" fill="#333333" data-color="1"/>
        <path d="M614.09 275.61a3.893 3.893 0 0 1-3.9-3.85l-.61-50.96-31.71-11.72a3.906 3.906 0 0 1-2.51-4.21 3.89 3.89 0 0 1 3.59-3.33l36.73-2.51 14.02-35.76a3.91 3.91 0 0 1 4.24-2.43c1.81.29 3.17 1.8 3.28 3.62l2.24 38.69 35.84 11.95a3.89 3.89 0 0 1 2.63 4.18 3.89 3.89 0 0 1-3.58 3.4l-36.94 2.72-19.73 47.8a3.9 3.9 0 0 1-3.6 2.41Zm-16.46-67.54 17.17 6.34c1.51.56 2.53 2 2.55 3.61l.41 34.58 13.37-32.4a3.91 3.91 0 0 1 3.32-2.4l19.93-1.47-19.88-6.63a3.895 3.895 0 0 1-2.66-3.47l-1.37-23.57-8.43 21.5a3.92 3.92 0 0 1-3.36 2.47z" fill="#333333" data-color="1"/>
        <path d="M331.27 245.28c-17.07 0-32.54-7.18-41.85-19.59-8.87-11.82-10.82-26.66-5.5-41.8 6.99-19.9 23.27-29.91 49.77-30.61 3.11-.1 6.97.43 10.87 1.44 1.74.45 2.87-.5 3.28-.93.4-.42 1.28-1.59.76-3.26-.84-2.67-1.75-5.16-2.58-7.01-7.74-17.37-19.72-33.97-30.33-48.17-7.5-10.03-16.36-18.79-26.32-28.37-1.45-1.39-3.13-2.9-4.91-4.49-2.81-2.51-5.99-5.35-8.86-8.33-4.57-4.74-4.66-12.22-.21-17.03 0 0 .02-.02.02-.03l3.31 3.12-3.29-3.14c6.49-7.05 17.71-6.19 27.61-5.44 3.86.29 7.52.57 10.03.27 19.93-2.36 36.86-6.67 54.91-13.97 2.4-.97 4.85-1.99 7.35-3.02C391.51 8.22 409.85.62 427.48.01c9.42-.33 17.39 6.46 23.77 11.91 1.11.94 2.17 1.86 3.21 2.69 16.29 13.17 29.16 30.71 39.51 44.81 16.39 22.33 38.22 56.27 38.53 93 .28 32.51-22.43 57.35-53.99 59.06-18.37 1-35.27-6.29-45.17-19.5-8.87-11.82-10.82-26.66-5.5-41.8 6.99-19.89 23.27-29.91 49.77-30.61 3.12-.09 6.97.43 10.87 1.44 1.74.45 2.87-.5 3.28-.93.4-.42 1.28-1.59.76-3.26-.84-2.67-1.75-5.16-2.58-7.01-7.74-17.37-19.72-33.97-30.33-48.17-.96-1.28-1.91-2.57-2.87-3.86-5.22-7.06-10.61-14.35-16.9-20.31-7.47-7.08-12.82-5.18-24.19-.19-1.97.86-4 1.75-6.18 2.63-30.26 12.19-57.22 20.55-82.23 25.5 7.68 8.21 15.33 17.5 22.82 27.7 16.39 22.33 38.22 56.28 38.53 93 .28 32.51-22.43 57.35-53.99 59.06q-1.68.09-3.33.09Zm3.1-82.91h-.44c-22.6.6-35.76 8.4-41.43 24.54-4.28 12.18-2.79 24.02 4.2 33.32 7.96 10.61 22.32 16.69 37.41 15.88 26.53-1.44 45.62-22.43 45.39-49.9-.22-25.95-11.91-53.82-36.77-87.7-9.18-12.51-18.59-23.58-27.97-32.89a4.54 4.54 0 0 1-1.09-4.72 4.56 4.56 0 0 1 3.79-3.03c1.21-.14 2.44-.32 3.64-.54 25.67-4.7 53.47-13.15 84.98-25.84 2.05-.83 4.02-1.69 5.92-2.52 11.27-4.95 21.92-9.62 34.1 1.91 6.87 6.5 12.5 14.13 17.95 21.5.95 1.28 1.89 2.55 2.84 3.82 10.91 14.59 23.23 31.69 31.36 49.92.96 2.16 2.01 5 2.95 7.99 1.36 4.36.3 8.94-2.85 12.25-3.16 3.32-7.71 4.62-12.15 3.46-3.05-.79-6.1-1.22-8.34-1.15-22.6.6-35.76 8.4-41.43 24.53-4.28 12.18-2.79 24.02 4.2 33.33 7.96 10.61 22.31 16.69 37.41 15.88 26.53-1.44 45.62-22.43 45.39-49.9-.22-25.95-11.91-53.82-36.77-87.7-10.04-13.67-22.53-30.69-37.9-43.12-1.09-.88-2.22-1.84-3.39-2.84-5.46-4.66-11.71-9.96-17.56-9.74-15.98.55-33.51 7.82-48.98 14.23-2.52 1.04-5 2.07-7.42 3.05-18.57 7.51-36.76 12.14-57.24 14.56-3.39.4-7.47.09-11.79-.24-7.45-.57-16.72-1.27-20.2 2.5l-.1.11c-1.18 1.27-1.14 3.26.09 4.54 2.64 2.74 5.55 5.34 8.37 7.85 1.85 1.65 3.59 3.21 5.16 4.72 10.26 9.87 19.39 18.9 27.3 29.48 10.91 14.59 23.23 31.69 31.36 49.92.96 2.16 2.01 5 2.95 7.99 1.36 4.36.3 8.94-2.85 12.25-3.16 3.32-7.71 4.62-12.15 3.46-2.86-.74-5.71-1.16-7.91-1.16Z" fill="#333333" data-color="1"/>
        <path d="M437.21 608.18c-17.07 0-32.54-7.18-41.85-19.59-8.87-11.82-10.82-26.66-5.51-41.8 6.99-19.9 23.27-29.91 49.77-30.61 3.12-.07 6.97.43 10.87 1.44 1.73.45 2.87-.5 3.28-.93.4-.42 1.28-1.58.76-3.25-.83-2.66-1.75-5.15-2.58-7.01-7.74-17.36-19.72-33.97-30.33-48.17-7.5-10.03-16.36-18.79-26.33-28.37-1.45-1.39-3.13-2.9-4.91-4.49-2.81-2.51-5.99-5.35-8.86-8.33-4.57-4.74-4.66-12.22-.21-17.03.03-.03.06-.07.07-.08 6.47-7.02 17.69-6.17 27.58-5.42 3.86.29 7.51.57 10.03.27 19.93-2.36 36.86-6.67 54.9-13.96 2.4-.97 4.85-1.99 7.34-3.02 16.18-6.71 34.53-14.31 52.16-14.92 9.42-.33 17.38 6.46 23.77 11.91 1.11.94 2.17 1.86 3.21 2.69 16.29 13.17 29.16 30.71 39.51 44.81 16.39 22.33 38.22 56.27 38.53 93 .28 32.51-22.43 57.35-53.99 59.06-18.37.98-35.26-6.29-45.17-19.5-8.87-11.82-10.82-26.66-5.51-41.8 6.99-19.9 23.27-29.91 49.77-30.61 3.1-.07 6.97.43 10.87 1.44 1.73.45 2.87-.5 3.28-.93.4-.42 1.28-1.58.76-3.25-.83-2.66-1.75-5.15-2.58-7.01-7.74-17.37-19.72-33.97-30.33-48.17-.95-1.28-1.9-2.56-2.85-3.85-5.22-7.06-10.62-14.37-16.91-20.32-7.48-7.08-12.82-5.18-24.19-.19-1.97.86-4 1.75-6.18 2.63-30.26 12.19-57.21 20.55-82.23 25.5 7.68 8.21 15.33 17.5 22.82 27.7 16.39 22.33 38.22 56.27 38.53 93 .28 32.51-22.43 57.35-53.99 59.06q-1.665.09-3.33.09Zm3.11-82.91h-.44c-22.6.6-35.77 8.39-41.43 24.53-4.28 12.18-2.79 24.02 4.2 33.33 7.96 10.61 22.29 16.7 37.41 15.88 26.53-1.44 45.62-22.43 45.39-49.9-.22-25.95-11.9-53.82-36.77-87.7-9.19-12.52-18.6-23.58-27.97-32.89a4.54 4.54 0 0 1-1.09-4.72 4.54 4.54 0 0 1 3.79-3.02c1.22-.14 2.44-.32 3.64-.54 25.68-4.7 53.47-13.15 84.98-25.84 2.05-.83 4.02-1.69 5.92-2.52 11.27-4.95 21.92-9.62 34.1 1.91 6.87 6.51 12.51 14.14 17.97 21.52l2.82 3.81c10.91 14.59 23.23 31.69 31.36 49.92.97 2.17 2.02 5.01 2.95 8 1.36 4.36.3 8.93-2.85 12.24-3.16 3.32-7.71 4.62-12.15 3.46-3.05-.79-6.1-1.22-8.34-1.15-22.6.6-35.76 8.4-41.43 24.53-4.28 12.18-2.79 24.02 4.2 33.33 7.96 10.61 22.29 16.7 37.41 15.88 26.53-1.44 45.62-22.43 45.39-49.9-.22-25.95-11.91-53.82-36.77-87.7-10.04-13.67-22.52-30.69-37.9-43.12-1.09-.88-2.22-1.84-3.39-2.84-5.36-4.57-11.42-9.74-17.22-9.74h-.33c-15.98.55-33.52 7.82-48.99 14.23-2.52 1.04-4.99 2.07-7.42 3.05-18.57 7.51-36.76 12.13-57.24 14.56-3.4.4-7.47.09-11.79-.24-7.45-.57-16.72-1.27-20.2 2.5 0 0-.1.1-.1.11-1.18 1.27-1.14 3.26.09 4.54 2.63 2.74 5.55 5.34 8.36 7.85 1.85 1.65 3.59 3.21 5.16 4.72 10.26 9.87 19.39 18.9 27.3 29.48 10.91 14.6 23.24 31.69 31.36 49.92.97 2.18 2.02 5.01 2.95 8 1.37 4.36.3 8.93-2.85 12.24-3.16 3.32-7.71 4.62-12.15 3.47-2.86-.74-5.7-1.16-7.9-1.16Zm-55.66-122.14h.01z" fill="#333333" data-color="1"/>
        <path d="M207.63 513.73c-17.76 0-35.59-7.34-49.83-21.86-30.6-31.19-40.75-78.2-45.72-110.85-2.38-15.59-3.76-30.49-4.13-44.4-3.38 2-6.93 3.69-10.39 5.34-5.42 2.58-10.55 5.02-14.59 8.39-5.53 4.61-10.78 12.73-15.16 23.49-1.44 3.54-5.33 5.72-9.25 5.2-3.68-.49-6.34-3.2-6.78-6.89-2.1-17.47 4.17-34.46 19.18-51.95 5.79-6.75 12.5-12.44 18.99-17.94 6.24-5.3 12.14-10.3 17.34-16.19.75-.85 1.58-1.92 2.46-3.05 3.88-5 9.23-11.83 17.2-11.52l-.03 4.55.18-4.54c7.36.29 13.22 6.31 13.35 13.72.09 4.92-.2 9.99-.46 14.46-.16 2.87-.32 5.57-.37 8-.34 16.58-.44 31.52 1.69 46.43 3.02 21.05 6.92 45.3 15.07 66.63.88 2.3 2.23 5.22 3.79 8.21 1.19 2.28 3.31 2.57 4.16 2.6 1.8.04 3.43-.86 4.36-2.42 2.4-4.08 5.18-7.7 7.83-10.21 22.74-21.52 44.67-26.75 67.03-15.98 17.02 8.2 27.73 22.18 30.17 39.38 2.73 19.26-5.31 39.42-21.49 53.9-13.08 11.71-28.8 17.51-44.58 17.51ZM112.4 323.45c.68 0 1.35.15 1.98.46 1.57.76 2.57 2.36 2.56 4.11-.07 15.86 1.31 33.23 4.12 51.64 7.6 49.91 21.34 83.54 43.22 105.85 23.37 23.82 57.8 25.48 81.86 3.94 13.71-12.27 20.82-29.84 18.55-45.85-1.99-14.09-10.91-25.62-25.11-32.46-18.82-9.06-36.88-4.49-56.83 14.39-2.02 1.91-4.29 4.9-6.25 8.22-2.62 4.45-7.32 7.03-12.43 6.9-5.13-.13-9.62-2.93-11.99-7.48-1.72-3.29-3.22-6.55-4.22-9.17-8.49-22.21-12.49-47.05-15.58-68.59-2.23-15.59-2.13-30.92-1.78-47.9.05-2.59.21-5.38.38-8.33.26-4.53.53-9.21.45-13.78-.05-2.59-2.07-4.69-4.62-4.79l.02-4.55-.19 4.54c-3.29-.13-6.67 4.19-9.64 8.01-.97 1.24-1.88 2.42-2.82 3.49-5.63 6.39-12.06 11.84-18.28 17.11-6.51 5.52-12.65 10.73-17.97 16.93-12.25 14.28-17.94 27.91-17.33 41.58 4.78-10.94 10.36-19.12 16.62-24.34 4.92-4.1 10.81-6.91 16.5-9.61 4.45-2.12 8.66-4.12 12.34-6.66a60 60 0 0 0 3.58-2.66c.82-.65 1.82-.99 2.83-.99Z" fill="#333333" data-color="1"/>
    </g>
</svg>
