<?xml version="1.0" encoding="UTF-8"?>
<svg data-bbox="-0.004 -0.008 549.644 569.457" viewBox="0 0 549.64 569.46" xmlns="http://www.w3.org/2000/svg" data-type="color">
    <g>
        <path d="M354.68 106.68q-.33 0-.66-.06a3.456 3.456 0 0 1-2.81-3.36l-.57-47.62-29.67-10.96a3.475 3.475 0 0 1-2.23-3.74 3.45 3.45 0 0 1 3.19-2.96l34.34-2.35 13.1-33.43a3.46 3.46 0 0 1 6.68 1.06l2.1 36.17 33.51 11.18c1.57.52 2.55 2.08 2.34 3.72-.2 1.64-1.54 2.9-3.18 3.03l-34.53 2.54-18.43 44.65a3.47 3.47 0 0 1-3.2 2.14Zm-16.13-62.89 16.74 6.18c1.35.5 2.25 1.77 2.26 3.21l.39 33.06 12.78-30.96c.5-1.21 1.64-2.04 2.95-2.13l19.42-1.43-19.33-6.45a3.465 3.465 0 0 1-2.36-3.08l-1.32-22.74-8.14 20.76a3.45 3.45 0 0 1-2.99 2.19l-20.4 1.4Z" fill="#333333" data-color="1"/>
        <path d="M148.66 197.08c-.72 0-1.43-.23-2.03-.66L1.43 91.38a3.465 3.465 0 0 1 1.28-6.19l232.51-51.6c1.33-.29 2.71.22 3.53 1.31s.91 2.56.25 3.76l-87.32 156.65a3.45 3.45 0 0 1-3.03 1.77ZM11.74 90.28l135.79 98.25 81.66-146.5z" fill="#333333" data-color="1"/>
        <path d="M3.46 92.04c-1.17 0-2.29-.6-2.93-1.62-.78-1.24-.69-2.84.21-3.99l32.05-40.66c.49-.63 1.19-1.06 1.97-1.24l153.77-34.12c.77-.17 1.58-.07 2.29.28l46.7 23.18c1.32.65 2.08 2.06 1.9 3.52a3.45 3.45 0 0 1-2.69 2.96L4.21 91.95c-.25.06-.5.08-.75.08Zm34.01-41.01L12.2 83.09l213.45-47.37-36.82-18.28z" fill="#333333" data-color="1"/>
        <path d="M73.83 76.59c-.67 0-1.33-.2-1.9-.57L33.62 50.81a3.47 3.47 0 0 1-1.5-3.52c.25-1.37 1.3-2.45 2.66-2.75l153.75-34.12a3.461 3.461 0 0 1 3.58 5.37l-27.75 39.55c-.49.7-1.23 1.2-2.07 1.39L74.58 76.51c-.25.06-.51.08-.76.08ZM44.26 49.52l30.24 19.9 84.97-19.16 21.85-31.15z" fill="#333333" data-color="1"/>
        <path d="M148.66 197.08c-1.18 0-2.3-.6-2.94-1.64L70.89 74.94c-.59-.95-.69-2.13-.25-3.17s1.34-1.79 2.43-2.04l87.71-19.78c1.08-.24 2.21.04 3.05.78.83.73 1.27 1.82 1.16 2.92l-12.88 140.28a3.46 3.46 0 0 1-2.65 3.05c-.27.06-.53.09-.8.09ZM79.34 75.43l66.81 107.59 11.5-125.25z" fill="#333333" data-color="1"/>
        <path d="M347.44 317.24c-.3-1.33-.61-2.66-.95-3.96a169.3 169.3 0 0 0-13.09-35.15c-1.14-2.26-2.34-4.5-3.58-6.7-3.96-7.05-8.43-13.79-13.35-20.2-1.58-2.07-3.22-4.09-4.91-6.08a169 169 0 0 0-32.26-29.43c-.08-.05-.15-.1-.23-.15-38.96-27.15-87.83-36.72-134.13-26.28C61.79 208.05 5.32 286.07 13.59 370.78c0 .03 0 .06.01.1.68 6.95 1.81 13.99 3.37 20.91 5.99 26.58 17.84 50.58 35.21 71.34 16.56 19.8 37.82 35.81 61.48 46.3.06.03.13.05.19.08 21.71 9.61 44.77 14.47 68.07 14.47 12.5 0 25.08-1.4 37.56-4.22 10.89-2.46 21.38-5.93 31.38-10.33 2.43-1.08 4.82-2.19 7.19-3.37a166 166 0 0 1-4.94-5.97 155 155 0 0 1-7.18 3.26c-8.98 3.83-18.38 6.86-28.11 9.06-34.19 7.71-69.15 4.3-101.09-9.86-.05-.03-.12-.05-.17-.08-46.57-20.71-81.05-62.7-92.24-112.34-1.5-6.64-2.58-13.4-3.23-20.06 0-.03-.01-.06-.01-.11-7.87-80.89 46.08-155.41 125.51-173.32 44.33-10 91.11-.8 128.38 25.25.06.05.14.1.23.15 10.88 7.64 20.7 16.53 29.3 26.43a162 162 0 0 1 18.35 25.92c1.25 2.18 2.44 4.4 3.58 6.65 5.49 10.77 9.78 22.19 12.76 34.08q.48 1.89.9 3.78c9.51 42.18 2.03 85.53-21.06 122.08-10.56 16.7-23.79 31.05-39.07 42.62-2 1.54-4.04 3-6.1 4.43 1.6 1.95 3.27 3.85 4.99 5.7 2.08-1.44 4.12-2.93 6.12-4.48 15.8-12.04 29.48-26.94 40.42-44.26 17.32-27.42 26.24-58.5 26.24-90.16 0-12.5-1.39-25.1-4.21-37.61Z" fill="#333333" data-color="1"/>
        <path d="M545.43 362.74c-.3-1.33-.61-2.66-.96-3.97-9.9-39.55-33.76-74.2-67.2-97.55-.06-.05-.14-.1-.22-.14-38.95-27.16-87.83-36.73-134.14-26.3a169.6 169.6 0 0 0-31.36 10.37c-2.39 1.05-4.73 2.16-7.06 3.32 1.69 1.95 3.34 3.94 4.93 5.97 2.31-1.13 4.66-2.21 7.04-3.22 8.94-3.83 18.33-6.9 28.12-9.1 44.33-10 91.11-.79 128.38 25.26.08.04.14.09.22.14a161.6 161.6 0 0 1 64.91 96.86c9.51 42.17 2.03 85.53-21.07 122.07-23.09 36.55-59.04 61.92-101.21 71.43-34.2 7.71-69.14 4.3-101.08-9.87a3 3 0 0 0-.17-.06c-21.9-9.75-41.11-24.18-56.51-41.91a163 163 0 0 1-18.41-25.94c-1.26-2.18-2.45-4.39-3.6-6.64-6.09-11.9-10.74-24.6-13.73-37.85-1.5-6.65-2.58-13.4-3.23-20.07 0-.03 0-.06-.01-.1-5.56-57.31 19.88-111.42 63.43-144.46 2-1.52 4.04-2.99 6.11-4.41-1.6-1.95-3.27-3.85-4.99-5.7-2.08 1.43-4.11 2.93-6.11 4.47-45.33 34.63-71.77 91.1-65.93 150.92.01.03.01.06.01.1.68 6.96 1.81 14 3.37 20.92 3.11 13.77 7.79 26.86 14 39.16 1.14 2.26 2.33 4.5 3.57 6.7 3.95 7.02 8.42 13.76 13.41 20.21 1.38 1.78 2.78 3.53 4.23 5.26.23.28.46.55.7.82 16.46 19.42 37.47 35.14 60.78 45.49l.18.06c21.72 9.62 44.78 14.47 68.08 14.47 12.51 0 25.08-1.4 37.56-4.22 44.14-9.95 81.75-36.5 105.92-74.75 17.32-27.43 26.25-58.5 26.25-90.17 0-12.5-1.39-25.09-4.21-37.58Z" fill="#333333" data-color="1"/>
        <path d="M305.75 292.82c-1.14-2.27-2.33-4.5-3.59-6.68-3.95-6.92-8.49-13.45-13.55-19.55-1.6-1.95-3.27-3.85-4.99-5.7-25.24-27.33-61.36-44.46-101.4-44.46-76.15 0-138.1 61.96-138.1 138.1s61.96 138.1 138.1 138.1c17.74 0 34.71-3.37 50.31-9.49 2.41-.95 4.78-1.96 7.11-3.02-1.26-2.18-2.45-4.39-3.6-6.64-2.32 1.07-4.68 2.06-7.08 2.96-14.52 5.6-30.28 8.66-46.74 8.66-71.99 0-130.57-58.58-130.57-130.57s58.58-130.57 130.57-130.57c37.55 0 71.45 15.94 95.29 41.39 1.72 1.83 3.39 3.71 4.99 5.65 5.09 6.09 9.62 12.65 13.53 19.6 1.27 2.22 2.45 4.47 3.56 6.76 8.46 17.27 13.2 36.68 13.2 57.17 0 41.6-19.56 78.72-49.96 102.66-2.01 1.57-4.07 3.1-6.17 4.54 1.14 2.26 2.33 4.5 3.58 6.68 2.09-1.43 4.13-2.93 6.13-4.47 32.79-25.27 53.94-64.93 53.94-109.42 0-22.17-5.25-43.13-14.57-61.71Z" fill="#333333" data-color="1"/>
        <path d="M380.2 261.92c-17.76 0-34.77 3.37-50.38 9.51-2.36.93-4.68 1.92-6.97 2.97 1.25 2.18 2.44 4.4 3.58 6.65 2.28-1.04 4.62-2.02 6.97-2.92 14.54-5.62 30.31-8.68 46.79-8.68 72.01 0 130.57 58.57 130.57 130.56s-58.57 130.57-130.57 130.57c-37.51 0-71.38-15.9-95.21-41.32-1.73-1.83-3.4-3.72-5.01-5.66-5.1-6.1-9.66-12.68-13.59-19.66-1.25-2.21-2.44-4.47-3.55-6.76-8.46-17.28-13.2-36.68-13.2-57.18 0-41.6 19.56-78.72 49.96-102.65 2.01-1.57 4.07-3.1 6.17-4.54-1.14-2.27-2.33-4.5-3.59-6.68-2.09 1.43-4.13 2.93-6.13 4.47-32.77 25.28-53.93 64.91-53.93 109.41 0 22.17 5.25 43.14 14.57 61.72 1.14 2.26 2.33 4.5 3.58 6.68 3.98 6.94 8.53 13.5 13.62 19.63 1.6 1.95 3.27 3.85 4.99 5.7 25.24 27.28 61.33 44.37 101.34 44.37 76.15 0 138.1-61.94 138.1-138.1s-61.96-138.09-138.1-138.09Z" fill="#333333" data-color="1"/>
        <path d="M73.83 76.59a3.458 3.458 0 0 1-2.64-5.7l35.29-41.54a3.46 3.46 0 0 1 3.97-.96l52.41 21.76c1.77.73 2.6 2.76 1.87 4.53s-2.76 2.6-4.53 1.87l-50.08-20.79-33.66 39.61a3.45 3.45 0 0 1-2.64 1.22Z" fill="#333333" data-color="1"/>
    </g>
</svg>
