<?xml version="1.0" encoding="UTF-8"?>
<svg data-bbox="-0.011 0.007 567.518 725.603" viewBox="0 0 567.51 725.6" xmlns="http://www.w3.org/2000/svg" data-type="color">
    <g>
        <path d="M58.11 106.15c-1.39 0-2.67-.85-3.2-2.18l-17.56-44.6-34.23-3.08a3.45 3.45 0 0 1-3.11-3.05c-.18-1.63.82-3.16 2.38-3.65l33.44-10.54L38.5 3.19A3.44 3.44 0 0 1 41.44.04c1.6-.22 3.14.69 3.7 2.2L57.6 35.63l34.04 2.89a3.438 3.438 0 0 1 .85 6.67L62.87 55.58l-1.34 47.24a3.45 3.45 0 0 1-2.84 3.29c-.2.03-.4.05-.6.05ZM20.84 50.98l19.24 1.73c1.29.12 2.41.95 2.89 2.16l12.18 30.94.93-32.8c.04-1.42.95-2.67 2.3-3.15L75.09 44l-20.22-1.72a3.44 3.44 0 0 1-2.93-2.22l-7.73-20.73-1.68 22.54c-.11 1.4-1.05 2.6-2.39 3.02l-19.29 6.08Zm18.25-9.36h.01z" fill="#333333" data-color="1"/>
        <path d="M530.82 602.93c-1.39 0-2.67-.85-3.2-2.18l-17.56-44.6-34.22-3.08a3.45 3.45 0 0 1-3.11-3.05c-.18-1.63.82-3.16 2.38-3.65l33.44-10.55 2.67-35.86a3.45 3.45 0 0 1 2.94-3.15c1.6-.23 3.14.69 3.7 2.2l12.46 33.39 34.04 2.89c1.61.14 2.91 1.38 3.12 2.99.2 1.61-.74 3.14-2.27 3.68l-29.62 10.39-1.34 47.24a3.45 3.45 0 0 1-2.84 3.29c-.2.03-.4.05-.6.05Zm-37.27-55.17 19.24 1.73c1.3.12 2.41.95 2.89 2.17l12.18 30.93.93-32.8c.04-1.42.95-2.67 2.3-3.15l16.71-5.86-20.23-1.72a3.44 3.44 0 0 1-2.93-2.22l-7.74-20.73-1.68 22.54c-.11 1.4-1.05 2.6-2.39 3.02l-19.29 6.08Zm18.25-9.36h.01z" fill="#333333" data-color="1"/>
        <path d="M230.42 404.9h-1.37c-1.75-.02-3.51-.09-5.24-.2-3.72-.23-7.46-.66-11.09-1.29a97.3 97.3 0 0 1-18.29-4.99c-.05-.02-.11-.04-.16-.07-7.79-3-14.93-6.94-21.22-11.71-1.16-.88-2.32-1.81-3.45-2.78-14.59-12.45-22.5-28.68-22.29-45.7 0-.33.01-.66.02-.99-.01-.18-.01-.36 0-.53l18.33-282.57a4.013 4.013 0 0 1 4-3.75h.32c2.2 0 3.98 1.78 4 3.98.03 3.34 4.71 7.3 12.53 10.6 0 0 .02 0 .03.01 2.98 1.26 6.37 2.4 10.06 3.4h.03c.01 0 .03 0 .04.01 3.48.95 7.25 1.77 11.21 2.45 2.99.52 6.1.95 9.25 1.3 3.84.43 7.79.73 11.75.9 1.9.09 3.84.14 5.78.17 13.38.17 26.15-1.07 36.97-3.59 16.4-3.81 23.21-9.37 24.06-12.98a4 4 0 0 1 4.3-3.07c2 .2 3.54 1.85 3.61 3.86l8.83 281.09c.01.61.01 1.18 0 1.75-.41 32.95-31.65 60.57-72.65 64.28-3.07.28-6.22.42-9.37.42Zm-32.97-13.93a89.3 89.3 0 0 0 16.61 4.52c3.36.58 6.8.98 10.24 1.19 1.6.1 3.23.16 4.84.18 3.34.04 6.68-.08 9.92-.38 36.9-3.34 65-27.57 65.36-56.38v-1.46l-8.49-270.33c-5.18 3.69-12.78 6.77-22.48 9.03-11.44 2.66-24.89 3.97-38.89 3.79-2.02-.02-4.05-.08-6.03-.17-4.13-.17-8.27-.49-12.28-.94-3.3-.36-6.58-.82-9.73-1.36-4.21-.72-8.23-1.6-11.94-2.61-.02 0-.05-.01-.07-.02-4.04-1.09-7.77-2.35-11.08-3.75 0 0-.02 0-.02-.01-4.55-1.92-7.96-3.93-10.5-5.95l-17.54 270.39v.35c-.02.39-.03.77-.03 1.17-.18 14.62 6.73 28.65 19.47 39.52 1.01.86 2.06 1.7 3.1 2.49 5.73 4.35 12.25 7.94 19.4 10.67.05.02.1.04.16.06Z" fill="#333333" data-color="1"/>
        <path d="M230.21 384.11h-.9c-17.36-.22-33.61-6.65-45.78-18.1-12.26-11.54-18.89-26.8-18.69-42.95 0-.32.01-.63.02-.94v-.44l6.7-116.91c-.19-.59-.28-1.2-.27-1.8a4.02 4.02 0 0 1 2.97-3.81c1.73-.46 3.55.27 4.48 1.81.11.19 3.03 4.61 27.29 7 34.93 3.46 74.35-.53 78.72-4.91a4.02 4.02 0 0 1 4.34-2.12c1.85.36 3.2 1.96 3.24 3.84l2.96 118.31q.015.795 0 1.59c-.41 32.95-29.52 59.44-65.08 59.44Zm-57.31-62.35v.33c-.02.36-.02.72-.03 1.07-.17 13.87 5.57 27.01 16.17 37 10.69 10.08 25.03 15.73 40.38 15.92h.8c31.18 0 56.7-22.96 57.06-51.51v-1.3l-2.78-111.28c-5.13 1.82-13.9 3.58-29.17 4.58-15.99 1.05-58.06 1.63-76.05-6.03l-6.37 111.21Zm6.09-119.9" fill="#333333" data-color="1"/>
        <path d="M237.16 217.23c-1.9 0-3.82-.02-5.76-.05-5.39-.09-52.86-1.15-59.16-10.99-.64-.99-.97-2.12-.95-3.24.02-1.26.47-2.48 1.29-3.53 7.2-9.3 53.94-8.81 59.25-8.72 15.25.25 29.61 1.47 40.42 3.42 13.88 2.51 19.77 5.74 19.68 10.81-.08 5.07-6.07 8.1-20.03 10.16-9.49 1.4-21.67 2.14-34.76 2.14Zm-55.72-14.11c6.25 2.41 23.04 5.6 50.09 6.05 27.03.43 43.94-2.2 50.26-4.4-6.25-2.41-23.04-5.6-50.09-6.05-27.05-.44-43.94 2.2-50.26 4.4" fill="#333333" data-color="1"/>
        <path d="M400.66 460.42h-1.38c-1.75-.02-3.52-.09-5.24-.2-3.72-.23-7.46-.66-11.1-1.29-.83-.14-1.67-.29-2.51-.46a97.5 97.5 0 0 1-15.77-4.53c-.06-.02-.12-.05-.17-.07-7.79-3-14.93-6.93-21.21-11.71a70 70 0 0 1-3.45-2.78c-14.58-12.45-22.5-28.68-22.29-45.7 0-.32.01-.65.02-.98q-.015-.27 0-.54l18.33-282.57a4.013 4.013 0 0 1 4-3.75h.32c2.2 0 3.98 1.78 4 3.98.03 3.34 4.71 7.3 12.53 10.6 0 0 .02 0 .03.01 2.98 1.26 6.37 2.4 10.06 3.4h.01c.02 0 .04.01.06.02 3.47.95 7.25 1.77 11.21 2.45 3 .52 6.11.95 9.25 1.3 3.84.43 7.79.73 11.75.9 1.9.09 3.84.14 5.78.17 13.39.17 26.15-1.07 36.97-3.59 16.4-3.81 23.21-9.37 24.07-12.98a4.01 4.01 0 0 1 4.3-3.07c2 .2 3.54 1.85 3.61 3.86l8.83 281.09c.01.61.01 1.18 0 1.75-.41 32.95-31.65 60.57-72.65 64.28-3.08.28-6.22.42-9.37.42ZM367.7 446.5a89 89 0 0 0 16.6 4.51c3.37.58 6.81.98 10.24 1.2 1.6.1 3.22.16 4.84.18 3.32.04 6.66-.09 9.92-.38 36.9-3.33 65-27.57 65.36-56.38v-1.46l-8.49-270.33c-5.18 3.69-12.78 6.77-22.48 9.03-11.43 2.66-24.87 3.98-38.89 3.79-2.02-.02-4.05-.08-6.03-.17-4.13-.17-8.27-.49-12.28-.94-3.29-.36-6.57-.82-9.73-1.36-4.21-.72-8.23-1.6-11.94-2.61-.02 0-.05-.01-.07-.02-4.04-1.09-7.77-2.35-11.08-3.75 0 0-.02 0-.02-.01-4.55-1.92-7.96-3.93-10.51-5.95l-17.53 270.38v.36c-.02.39-.03.77-.03 1.17-.18 14.62 6.73 28.65 19.47 39.52 1.01.86 2.05 1.7 3.1 2.49 5.73 4.35 12.25 7.94 19.4 10.67.06.02.11.04.17.07Z" fill="#333333" data-color="1"/>
        <path d="M237.07 81.15c-.84 0-1.68 0-2.52-.02-2.02-.02-4.05-.08-6.03-.17-4.13-.17-8.27-.49-12.28-.94-3.3-.36-6.58-.82-9.73-1.36-8.95-1.54-16.73-3.69-23.13-6.4-14.27-6.01-17.37-13.02-17.44-17.86v-.35c.07-5.46 3.94-13.26 21.97-19.16 12.72-4.17 29.5-6.35 47.29-6.12 33.42.42 68.81 10.04 68.6 27.05 0 .84-.12 1.71-.32 2.57-1.93 8.17-12.6 14.9-30.06 18.95-10.75 2.5-23.28 3.81-36.37 3.81Zm-63.1-27.08v.21c.03 3.34 4.72 7.31 12.54 10.6 5.75 2.43 13.14 4.46 21.37 5.88 2.99.52 6.1.95 9.25 1.3 3.84.43 7.79.73 11.75.9 1.9.09 3.84.14 5.78.17 13.38.17 26.15-1.07 36.97-3.59 16.4-3.81 23.21-9.37 24.06-12.98.07-.28.1-.55.1-.82.1-7.6-22.94-18.46-60.68-18.94-16.93-.21-32.79 1.82-44.69 5.72-12.07 3.95-16.41 8.63-16.45 11.68z" fill="#333333" data-color="1"/>
        <path d="M407.31 136.68c-.84 0-1.68 0-2.52-.02-2.02-.02-4.05-.08-6.03-.17-4.13-.17-8.27-.49-12.28-.94-3.3-.36-6.57-.82-9.73-1.36-8.95-1.54-16.73-3.69-23.12-6.4-14.27-6.01-17.37-13.02-17.44-17.86v-.35c.07-5.46 3.94-13.26 21.97-19.16 12.72-4.17 29.51-6.35 47.29-6.12 33.42.42 68.81 10.04 68.6 27.05 0 .84-.11 1.7-.31 2.56-1.93 8.18-12.61 14.91-30.06 18.96-10.75 2.5-23.28 3.81-36.37 3.81M344.2 109.6v.21c.03 3.34 4.72 7.31 12.54 10.6 5.75 2.43 13.14 4.46 21.37 5.88 2.99.52 6.1.95 9.24 1.3 3.84.43 7.79.73 11.75.9 1.9.09 3.84.14 5.78.17 13.37.17 26.15-1.07 36.97-3.59 16.4-3.81 23.21-9.37 24.07-12.98.06-.28.1-.55.1-.82.1-7.6-22.94-18.46-60.68-18.94-16.92-.22-32.79 1.82-44.69 5.72-12.07 3.95-16.41 8.63-16.45 11.68z" fill="#333333" data-color="1"/>
        <path d="M237.35 670.07c-2.56 0-5.14-.02-7.72-.05a581 581 0 0 1-30.4-1.16c-8.4-.54-16.56-1.28-24.25-2.18-7.58-.9-14.62-1.95-20.94-3.14-3.83-.72-7.47-1.51-10.84-2.36-.86-.22-1.7-.44-2.5-.66-6.75-1.84-11.92-3.88-15.39-6.04-4.06-2.55-6.11-5.51-6.06-8.81.05-4.11.15-11.76 90.69-35.68.02 0 .04-.01.06-.02l.32-.08 2.6-209.18c.01-1.06.45-2.08 1.21-2.82.75-.73 1.75-1.14 2.8-1.14h.05l23.13.29c2.21.03 3.99 1.85 3.96 4.06l-2.58 207.19c13.38 3.76 36.05 10.32 56.17 17.11 39.73 13.41 42.97 18.56 42.91 23.06-.04 3.4-.17 13.73-51.48 19.12-15.52 1.63-33.28 2.48-51.75 2.48ZM127.59 646.1c.31.35.9.9 1.99 1.58 1.92 1.2 5.78 3.07 13.24 5.1.76.21 1.55.41 2.36.62 3.2.8 6.69 1.56 10.36 2.25 6.14 1.15 13 2.18 20.39 3.06 7.55.89 15.56 1.61 23.83 2.14 9.68.63 19.77 1.01 29.98 1.14 20.93.27 41.17-.56 58.53-2.39 31.44-3.31 42.01-8.65 43.99-10.88-5.07-4.89-35.98-16.86-95.88-33.54a4.02 4.02 0 0 1-2.94-3.91l2.57-206.26-15.11-.19-2.59 208.21a4.02 4.02 0 0 1-2.98 3.83l-2.75.73-.22.06-.37.1c-55.74 14.72-79.96 24.29-84.4 28.36Z" fill="#333333" data-color="1"/>
        <path d="M407.58 725.6c-2.56 0-5.13-.02-7.72-.05a583 583 0 0 1-30.4-1.16c-8.41-.54-16.57-1.28-24.25-2.18-7.58-.9-14.63-1.95-20.94-3.14-3.86-.73-7.5-1.52-10.84-2.36-.86-.22-1.7-.44-2.5-.66-6.75-1.85-11.93-3.88-15.39-6.05-4.06-2.55-6.11-5.51-6.06-8.81.05-4.11.15-11.77 90.69-35.69.02 0 .04-.01.06-.02l.32-.08 2.6-209.29c.01-1.06.45-2.08 1.21-2.82s1.74-1.15 2.85-1.14l23.13.29c1.06.01 2.08.45 2.82 1.21a4.04 4.04 0 0 1 1.14 2.85l-.03 2.09-2.55 205.21c13.38 3.76 36.05 10.33 56.17 17.12 39.73 13.41 42.97 18.56 42.91 23.07-.04 3.4-.17 13.73-51.48 19.13-15.52 1.64-33.28 2.49-51.76 2.49Zm-109.76-23.98c.31.35.9.9 1.99 1.58 1.92 1.2 5.78 3.07 13.24 5.1.76.21 1.55.41 2.36.62 3.17.8 6.66 1.56 10.36 2.25 6.13 1.15 12.99 2.18 20.39 3.06 7.54.89 15.56 1.61 23.83 2.15 9.69.63 19.78 1.02 29.98 1.15 20.93.26 41.16-.56 58.53-2.39 31.45-3.31 42.02-8.65 43.99-10.89-5.07-4.89-35.97-16.87-95.89-33.56a4 4 0 0 1-2.93-3.91l2.57-206.37-15.11-.19-2.59 208.32a4.02 4.02 0 0 1-2.98 3.83l-2.76.73c-.07.02-.13.04-.2.05l-.38.1c-55.75 14.73-79.97 24.31-84.4 28.38Z" fill="#333333" data-color="1"/>
        <path d="M400.45 439.64h-.9c-17.36-.22-33.62-6.65-45.78-18.1-12.25-11.54-18.89-26.8-18.69-42.95 0-.36.01-.66.02-.95v-.43l6.7-117.03c-.05-.18-.08-.34-.11-.46a4 4 0 0 1 2.28-4.85c1.97-.83 4.23.02 5.16 1.92 5.23 5.1 55.23 10.56 88.42 6.63 15.59-1.85 17.46-4.88 17.47-4.91.67-1.2 1.93-2 3.31-2.07 1.36-.07 2.71.55 3.5 1.68.99 1.41 1.28 1.83 2.56 61.87.62 29.08 1.12 58.38 1.13 58.67.01.5 0 1.03 0 1.56-.41 32.95-29.52 59.44-65.08 59.44Zm-57.32-62.34v.31c-.02.33-.02.65-.03.98-.18 13.96 5.57 27.1 16.17 37.09 10.7 10.08 25.04 15.73 40.38 15.92h.8c31.18 0 56.7-22.96 57.06-51.51v-1.31c-.65-37.81-1.75-92.27-2.48-111.07-4.06 1.64-10.41 3.12-20.49 4.05-12.27 1.13-28.35 1.23-44.13.27-11.89-.72-22.91-2.01-31.03-3.63-4.23-.84-7.42-1.72-9.85-2.6l-6.38 111.49Z" fill="#333333" data-color="1"/>
        <path d="M407.39 272.76c-1.9 0-3.82-.02-5.76-.05-5.39-.09-52.86-1.15-59.16-10.99-.64-.99-.97-2.12-.95-3.24.02-1.25.47-2.47 1.29-3.52 7.21-9.31 53.95-8.81 59.25-8.73 15.25.25 29.61 1.47 40.42 3.42 13.88 2.51 19.77 5.74 19.68 10.81-.08 5.07-6.07 8.1-20.03 10.16-9.49 1.4-21.67 2.14-34.76 2.14Zm-55.71-14.11c6.25 2.41 23.04 5.6 50.09 6.05 27.03.43 43.94-2.2 50.27-4.4-6.25-2.41-23.04-5.6-50.09-6.05-27.06-.44-43.94 2.2-50.26 4.4Z" fill="#333333" data-color="1"/>
    </g>
</svg>
