<?xml version="1.0" encoding="UTF-8"?>
<svg data-bbox="0.008 0.03 404.788 229.618" viewBox="0 0 404.78 229.67" xmlns="http://www.w3.org/2000/svg" data-type="shape">
    <g>
        <path d="M278.38 135.74c1.53-1.7 3.12-3.42 4.66-5.19 2.18-2.5 4.31-5.04 6.47-7.57.13-.15.26-.3.4-.45.72-.76 1.53-1.33 2.64-1.01 1.17.34 1.77 1.21 1.93 2.36.11.75.12 1.51.13 2.27.09 7.2.15 14.39.27 21.59.03 1.81.25 3.62.58 5.43.98-2.39 1.92-4.8 2.94-7.18 2.37-5.47 5.4-10.54 9.69-14.74 1.1-1.08 2.36-2.07 3.71-2.81 3-1.64 6.01-.38 7.12 2.84.81 2.36.8 4.81.5 7.24-.4 3.24-.93 6.47-1.43 9.91.4-.65.73-1.16 1.04-1.69 3.04-5.08 6.55-9.76 11.44-13.24 1.93-1.37 3.93-2.63 6.32-3.05 3.04-.53 5.2 1.18 5.32 4.27.13 3.33-.63 6.53-1.83 9.59-1.64 4.16-3.54 8.22-5.19 12.38-2.72 6.84-5.03 13.83-6.04 21.15-.31 2.24-.35 4.52-.52 6.93 2.15-.42 4.01-.85 5.89-1.15 4.76-.77 9.54-1.26 14.29-.08 3.88.96 6.98 2.96 8.39 6.95.95 2.68.58 5.3-.58 7.81-2.03 4.41-5.19 7.57-10.09 8.61-3.45.73-6.66-.16-9.72-1.74-5.89-3.05-9.79-7.72-11.51-14.16-.04-.15-.1-.31-.16-.45-.03-.07-.09-.13-.22-.31-3.49 1.09-7.05 2.14-10.56 3.3-14.01 4.61-27.71 10.07-41.39 15.56-13.24 5.31-26.44 10.73-40.2 14.61-9.36 2.64-18.84 4.75-28.55 5.56-12.14 1-24.09.11-35.48-4.52-9.33-3.79-16.46-10.14-20.3-19.63-1.4-3.46-2.2-7.17-3.16-10.79-.22-.83-.11-1.85.14-2.69.34-1.16 1.6-1.63 2.74-1.26s1.64 1.3 1.48 2.53c-.08.61-.11 1.28.03 1.87 1.28 5.17 2.68 10.29 5.91 14.69 4.45 6.05 10.35 10.05 17.4 12.39 9.62 3.19 19.54 4.05 29.61 3.27 16.04-1.24 31.37-5.58 46.33-11.24 13.49-5.1 26.84-10.57 40.28-15.79 11.25-4.37 22.59-8.49 34.21-11.79.86-.24 1.09-.6 1.06-1.5-.24-6.72 1.26-13.17 3.16-19.55 2.09-6.98 4.96-13.66 7.91-20.31 1.26-2.83 2.11-5.78 2.37-8.88.04-.45 0-.91 0-1.68-1.17.51-2.11.82-2.95 1.3-3.77 2.18-6.91 5.11-9.25 8.74-2.87 4.47-5.44 9.12-8.13 13.7-.59 1-1.08 2.06-1.72 3.02-.88 1.31-2.11 1.76-3.29 1.34-1.11-.4-1.84-1.49-1.59-3.03.38-2.36.96-4.69 1.52-7.02 1.24-5.21 2.68-10.38 2.82-15.78.03-1.23-.12-2.47-.28-3.69-.13-.99-.78-1.2-1.53-.61-1.1.85-2.22 1.71-3.17 2.72-4.72 4.98-7.58 11.04-9.92 17.37-1.04 2.81-1.82 5.71-2.76 8.55-.29.87-.58 1.77-1.08 2.52-1.16 1.76-3.42 1.58-4.12-.43-.56-1.6-.75-3.34-.93-5.04-1-9.44-1.38-18.9-1.14-28.39 0-.22-.04-.45-.09-.98-1.17 1.37-2.14 2.56-3.18 3.69-2.46 2.68-4.98 5.3-7.42 8-.31.35-.5.98-.45 1.45.9 9.53.21 18.86-3.6 27.77-1.41 3.3-3.29 6.32-6.19 8.56-4.03 3.12-9.16 2.6-12.43-1.31-3.03-3.63-4.6-7.97-5.53-12.49-.73-3.54-.93-7.19-1.36-10.8-.06-.47-.05-.94-.29-1.49-.12.29-.26.57-.37.87-1.49 4.18-3.12 8.31-5.49 12.09-1.52 2.42-3.29 4.63-5.54 6.42-5.74 4.57-12.99 3.96-17.96-1.54-.85-.94-1.62-1.95-2.35-2.84-1.37 1.83-2.59 3.77-4.11 5.43-2.69 2.95-6.05 4.6-10.15 4.09-3.65-.45-6.27-2.63-8.49-5.38-3.37-4.19-4.87-9.21-6.37-14.24-.15-.49-.28-.98-.49-1.73-.36.54-.6.88-.82 1.23-3.5 5.37-7.58 10.2-12.77 14.03-2.84 2.1-5.96 3.44-9.56 3.28-4.38-.19-7.54-2.66-10.22-5.81-3.26-3.85-4.69-8.49-5.28-13.42-.57-4.79-.67-9.57.52-14.41-.5-.22-1-.36-1.42-.63-1.64-1.04-3.36-2-4.86-3.23-1.41-1.16-2.09-2.82-1.91-4.71.09-.89.58-1.49 1.52-1.58s1.68.4 1.77 1.26c.25 2.47 2.05 3.47 3.91 4.45.59.31 1.23.52 1.95.81.18-.51.31-.91.46-1.31 1.76-4.78 4.16-9.2 7.81-12.79 2.48-2.44 5.54-3.77 9.08-3.74 5.91.04 9.56 5.48 7.32 10.96-1.47 3.58-4.14 6.15-7.42 8.08-4.21 2.48-8.68 4.08-13.7 3.45-.28-.03-.84.35-.88.61-1.28 7.24-1.06 14.37 2.36 21.05.92 1.8 2.37 3.44 3.91 4.77 3.45 2.98 6.94 3.15 10.83.76 3.93-2.42 7.17-5.64 9.92-9.31 2.13-2.84 3.99-5.88 5.93-8.86.26-.4.42-.98.37-1.45-.79-7.98-.86-15.97-.29-23.96 1.39-19.68 4.23-39.09 10.86-57.79 1.51-4.26 3.09-8.53 5.98-12.09.98-1.21 2.24-2.34 3.6-3.07 2.88-1.53 5.93-.45 6.92 2.65.84 2.63 1.26 5.45 1.46 8.21.74 10.06-.83 19.93-2.71 29.77-3.84 20.14-11.02 39.03-21.11 56.84-.29.51-.46 1.23-.36 1.8.89 5.02 2.26 9.92 4.63 14.44.95 1.81 2.25 3.52 3.7 4.97 3.05 3.04 6.81 3.06 10.15.35 2.57-2.09 3.93-5 5.39-7.84.1-.2.04-.56-.06-.79-2.05-4.48-2.47-9.3-3.2-14.09-1.05-6.86.58-13.1 4.04-18.93.96-1.62 2.33-3.04 3.69-4.38 5.95-5.87 16.9-1.76 18.78 5.83.1.42.28.96.12 1.28-.32.62-.78 1.44-1.33 1.58-.56.15-1.39-.31-1.94-.72-.35-.26-.45-.91-.6-1.4-1.29-4.37-8.54-7.42-12.68-3.04-3.43 3.62-5.27 7.96-5.87 12.74-1.05 8.31.77 16.12 5.06 23.33.51.85 1.15 1.64 1.81 2.39 3.84 4.38 9 4.62 13.26.65 2.95-2.76 5.04-6.15 6.43-9.87 2.26-6.06 4.25-12.22 6.29-18.35.22-.65.11-1.42.09-2.14-.18-4.78 1.19-9.08 4.1-12.86 4.08-5.28 10.33-6.26 15.83-2.46 4.23 2.92 6.7 7.1 8.21 11.92.2.65.38 1.3.57 1.95 0 .02.06.03.27.12Zm-87.62 7.13c.08.03.15.06.23.09.1-.16.23-.31.31-.48 2.53-5.3 5.27-10.51 7.55-15.91 7.1-16.84 11.33-34.42 13.07-52.6.5-5.18.46-10.39-.39-15.55-.19-1.17-.1-2.82-1.45-3.17-1.49-.39-2.48.98-3.19 2.11-1.27 2.02-2.54 4.08-3.47 6.27-5.02 11.94-7.93 24.47-9.8 37.23-1.27 8.69-2.13 17.46-2.79 26.22-.4 5.24-.07 10.53-.07 15.8Zm63.78 3.78c-.06.33-.15.63-.16.93-.22 5.32-.14 10.63 1.15 15.84.91 3.66 2.06 7.23 4.35 10.3 2.03 2.72 5.06 3.07 7.41.62 1.55-1.61 2.96-3.51 3.93-5.51 3.39-7.03 4.28-14.57 4.02-22.29-.02-.73-.12-1.46-.18-2.29-6.53 4.18-13.13 6.5-20.52 2.41Zm7.09-2.14c5.23-.03 9.11-2.27 12.36-4.92.26-.21.42-.81.33-1.14-.68-2.33-1.24-4.72-2.21-6.93-1.33-3.01-3.38-5.55-6.44-6.99-2.48-1.17-4.95-1.19-7.2.65-2.05 1.68-3.27 3.89-4.06 6.37-.08.26-.08.72.09.86.94.84.89 1.9.78 2.99-.14 1.43-.35 2.86-.35 4.29 0 .68.22 1.52.66 2.02 1.72 1.99 3.99 2.86 6.06 2.79Zm67.72 44.52c-.08.24-.1.28-.1.31.02.16.03.32.07.47 1.74 6.6 6 10.78 12.43 12.78 1.1.34 2.41.43 3.54.22 4.34-.81 6.72-3.76 7.89-7.8.67-2.29-.16-4.64-2.22-5.84-1.42-.82-3.05-1.41-4.67-1.72-3.58-.67-7.18-.26-10.73.34-2.12.35-4.21.84-6.21 1.24m-174.08-51.79c.17.09.23.15.31.16.24.02.48.04.72.04 5.15-.04 9.59-1.93 13.32-5.39 1.11-1.03 2.07-2.36 2.71-3.74 1.42-3.07-.5-5.84-3.88-5.72-2.97.1-5.36 1.48-7.21 3.75-2.36 2.89-4.23 6.09-5.55 9.6-.16.43-.28.89-.41 1.31Z"/>
        <path d="M93 163.53c-1.27 2.88-2.37 5.58-3.63 8.2-2.52 5.22-5.52 10.11-10.08 13.86-1.95 1.6-4.13 2.76-6.68 3.03-3.49.36-6.2-1.17-8.45-3.67-2.98-3.31-4.39-7.39-5.45-11.6-2.09-8.21-2.53-16.58-2.08-25.01 1.01-18.85 5.05-37.19 9.32-55.49 2.47-10.58 4.94-21.17 7.17-31.8 1.35-6.45 2.4-12.99 2.06-19.63-.09-1.7-.35-3.43-.81-5.07-1.53-5.42-5.24-7.62-10.76-6.5-3.63.73-6.83 2.45-9.9 4.43-7.25 4.69-13.18 10.78-18.37 17.59-15.3 20.1-25.37 42.57-29.81 67.46-1.89 10.56-1.9 21.18.87 31.65.62 2.36 1.84 4.58 2.84 6.83.52 1.17.36 2.2-.54 2.75-.86.52-1.9.28-2.62-.7-.43-.58-.79-1.2-1.13-1.83-1.66-3.05-2.67-6.33-3.39-9.7-2.25-10.53-1.91-21.08.1-31.57C6.1 93.51 15.43 72.33 29.13 53.07c5.94-8.35 12.75-15.92 21.33-21.71 3.93-2.65 8.04-4.96 12.81-5.74 7.79-1.28 13.39 2.4 15.36 10.06 1.15 4.45 1.05 8.95.58 13.47-1.49 14.16-5.04 27.9-8.38 41.69-3.24 13.36-6.24 26.78-8.22 40.39-1.35 9.31-2.28 18.66-1.72 28.09.37 6.21 1.31 12.32 3.63 18.14.83 2.1 1.96 4.02 3.7 5.53s3.64 1.85 5.78.92c2.27-.98 3.99-2.64 5.55-4.48 4.18-4.92 6.56-10.81 9.15-16.63 2.05-4.59 2.15-9.01 1.17-13.9-2.24-11.17-2.71-22.54-2.25-33.91.3-7.38.81-14.77 1.57-22.12.83-8.03 2.11-16.02 5.31-23.53.68-1.6 1.63-3.12 2.62-4.56.6-.87 1.44-1.62 2.31-2.23 2.61-1.81 5.45-1.17 7.1 1.55 1.26 2.07 1.59 4.42 1.84 6.77.67 6.39.36 12.78-.17 19.16-1.34 16.08-4.1 31.94-7.76 47.64-1.34 5.72-3.04 11.34-4.51 17.03a5.9 5.9 0 0 0-.06 2.68c1.4 6.09 3.09 12.11 6.08 17.63 1.44 2.65 3.15 5.22 5.12 7.5 3.3 3.82 6.04 3.53 8.97-.63 2.75-3.91 4.34-8.36 5.75-12.86 2.78-8.86 4.55-17.97 6.2-27.09 3.41-18.84 7.16-37.62 13-55.89 5.61-17.53 13.11-34.18 24.02-49.13 9.08-12.44 20.04-22.82 33.89-29.85 7.78-3.95 16-6.39 24.76-6.94 18.42-1.16 35.04 8.97 42.41 25.92 3.59 8.26 5.18 16.89 4.49 25.85-.68 8.81-3.74 16.9-8.38 24.37-2.81 4.51-5.81 8.91-8.73 13.35-.2.3-.42.59-.68.83-.77.69-1.66.81-2.54.26-.89-.56-1.15-1.43-.82-2.4.19-.55.55-1.06.87-1.56 3.45-5.43 7.17-10.71 10.28-16.33 3.98-7.19 6.22-15.01 5.9-23.32-.48-12.19-4.13-23.18-13-31.97-6.31-6.26-13.99-9.72-22.82-10.56-12.19-1.17-23.24 2.39-33.64 8.38-10.07 5.81-18.43 13.61-25.64 22.67-9.22 11.58-15.99 24.54-21.47 38.24-6.2 15.5-10.27 31.61-13.65 47.9-2.31 11.11-4.27 22.29-6.53 33.41-1.63 7.99-3.61 15.9-6.95 23.4-1.27 2.86-2.79 5.58-4.97 7.87-3.52 3.68-7.81 4.03-11.8.89-3.73-2.94-6.26-6.85-8.19-11.1-1.64-3.63-2.9-7.43-4.32-11.16-.15-.4-.26-.83-.47-1.49Zm.56-17.38c.11.01.21.03.32.04.11-.38.23-.75.33-1.14 5.24-20.32 8.98-40.89 10.18-61.87.28-4.95.34-9.92-.75-14.81-.2-.88-.81-1.67-1.22-2.5-.75.61-1.78 1.07-2.19 1.85-1.26 2.44-2.55 4.91-3.34 7.52-3.21 10.68-4.16 21.72-4.79 32.78-.57 9.91-.52 19.83.46 29.72.28 2.81.67 5.61 1.01 8.41Z"/>
        <path d="M353.62 136.11c-.97-2.48-2.14-4.7-2.7-7.06-1.16-4.87 1.78-11.15 6.25-13.98 4.46-2.82 10.21-2.64 14.41.56 3.26 2.48 4.94 5.8 4.89 9.93 0 .5-.04 1.18-.35 1.47-.5.46-1.27.95-1.87.88-.53-.06-1.1-.79-1.41-1.35-.25-.44-.11-1.09-.18-1.65-.4-3.41-2.18-5.86-5.38-7.03-3.24-1.19-6.35-.69-8.95 1.68-3.99 3.63-4.44 8.99-1.27 13.32.48.66.88.81 1.68.48 2.65-1.11 5.41-1.83 8.29-1.13 1.1.27 2.22.74 3.14 1.4 2.7 1.94 2.5 5.54-.33 7.3-2 1.25-4.19 1.36-6.36.73-1.79-.52-3.57-1.2-5.19-2.11-1.02-.57-1.6-.41-2.41.19-10.32 7.74-12.15 24.21 1.49 32.32 10 5.95 20.56 6.08 30.5-.53 7.78-5.17 12.05-12.68 12.68-22.05.14-2.15-.2-4.41-.73-6.51-.72-2.85-2.75-4.73-5.69-5.19-3.06-.48-5.48.95-7.23 3.34-.51.7-.53 1.87-.5 2.82.02.76.47 1.51.71 2.28.37 1.2-.08 2.31-1.07 2.74-1.02.44-2.21.06-2.74-1.05-2-4.19-2.06-7.69 1.71-11.07 3.41-3.05 7.33-4.45 11.83-2.73 4.63 1.77 7.08 5.38 7.68 10.17 1.36 10.88-2.34 20-10.15 27.47-6.77 6.48-15.01 9.45-24.33 8.64-7.68-.67-14.69-3.17-20.26-8.97-7.58-7.9-8.11-19.82-2.56-28.46 1.77-2.76 3.97-5.11 6.41-6.85Zm8.74.47c1.28 1.22 4.02 1.48 5.32.46-1.72-1.16-3.49-.83-5.32-.46"/>
    </g>
</svg>
